<svg width="44" height="53" viewBox="0 0 44 53" fill="none" xmlns="http://www.w3.org/2000/svg">
<path d="M36.6604 50.8736C33.8174 53.6704 30.7133 53.2288 27.7253 51.904C24.5632 50.5497 21.6621 50.4908 18.326 51.904C14.1485 53.7293 11.9437 53.1994 9.44885 50.8736C-4.70813 36.0649 -2.61939 13.5133 13.4523 12.689C17.3686 12.895 20.0956 14.8676 22.3874 15.0442C25.8106 14.3376 29.0888 12.3062 32.744 12.5712C37.1246 12.9245 40.4317 14.6909 42.6075 17.8705C33.5563 23.3759 35.7031 35.4761 44 38.8618C42.3464 43.2779 40.1997 47.6645 36.6314 50.903L36.6604 50.8736ZM22.0973 12.5123C21.6621 5.94703 26.913 0.529933 32.9471 0C33.7884 7.59571 26.1587 13.2483 22.0973 12.5123Z" fill="white"/>
</svg>
