<svg width="718" height="413" viewBox="0 0 718 413" fill="none" xmlns="http://www.w3.org/2000/svg">
<path d="M2.64205 401V366.091H17.1989C19.8125 366.091 22 366.46 23.7614 367.199C25.5341 367.937 26.8636 368.972 27.75 370.301C28.6477 371.631 29.0966 373.17 29.0966 374.92C29.0966 376.25 28.8182 377.438 28.2614 378.483C27.7045 379.517 26.9375 380.375 25.9602 381.057C24.983 381.739 23.8523 382.216 22.5682 382.489V382.83C23.9773 382.898 25.2784 383.278 26.4716 383.972C27.6761 384.665 28.642 385.631 29.3693 386.869C30.0966 388.097 30.4602 389.551 30.4602 391.233C30.4602 393.108 29.983 394.784 29.0284 396.261C28.0739 397.727 26.6932 398.886 24.8864 399.739C23.0795 400.58 20.8864 401 18.3068 401H2.64205ZM11.0795 394.199H16.2955C18.125 394.199 19.4716 393.852 20.3352 393.159C21.2102 392.466 21.6477 391.5 21.6477 390.261C21.6477 389.364 21.4375 388.591 21.017 387.943C20.5966 387.284 20 386.778 19.2273 386.426C18.4545 386.062 17.5284 385.881 16.4489 385.881H11.0795V394.199ZM11.0795 380.443H15.75C16.6705 380.443 17.4886 380.29 18.2045 379.983C18.9205 379.676 19.4773 379.233 19.875 378.653C20.2841 378.074 20.4886 377.375 20.4886 376.557C20.4886 375.386 20.0739 374.466 19.2443 373.795C18.4148 373.125 17.2955 372.79 15.8864 372.79H11.0795V380.443ZM46.7386 401.494C43.9886 401.494 41.625 400.932 39.6477 399.807C37.6818 398.67 36.1648 397.091 35.0966 395.068C34.0398 393.034 33.5114 390.676 33.5114 387.994C33.5114 385.301 34.0398 382.943 35.0966 380.92C36.1648 378.886 37.6818 377.307 39.6477 376.182C41.625 375.045 43.9886 374.477 46.7386 374.477C49.4886 374.477 51.8466 375.045 53.8125 376.182C55.7898 377.307 57.3068 378.886 58.3636 380.92C59.4318 382.943 59.9659 385.301 59.9659 387.994C59.9659 390.676 59.4318 393.034 58.3636 395.068C57.3068 397.091 55.7898 398.67 53.8125 399.807C51.8466 400.932 49.4886 401.494 46.7386 401.494ZM46.7898 395.205C47.7898 395.205 48.6364 394.898 49.3295 394.284C50.0227 393.67 50.5511 392.818 50.9148 391.727C51.2898 390.636 51.4773 389.375 51.4773 387.943C51.4773 386.489 51.2898 385.216 50.9148 384.125C50.5511 383.034 50.0227 382.182 49.3295 381.568C48.6364 380.955 47.7898 380.648 46.7898 380.648C45.7557 380.648 44.8807 380.955 44.1648 381.568C43.4602 382.182 42.9205 383.034 42.5455 384.125C42.1818 385.216 42 386.489 42 387.943C42 389.375 42.1818 390.636 42.5455 391.727C42.9205 392.818 43.4602 393.67 44.1648 394.284C44.8807 394.898 45.7557 395.205 46.7898 395.205ZM76.4574 401.494C73.7074 401.494 71.3438 400.932 69.3665 399.807C67.4006 398.67 65.8835 397.091 64.8153 395.068C63.7585 393.034 63.2301 390.676 63.2301 387.994C63.2301 385.301 63.7585 382.943 64.8153 380.92C65.8835 378.886 67.4006 377.307 69.3665 376.182C71.3438 375.045 73.7074 374.477 76.4574 374.477C79.2074 374.477 81.5653 375.045 83.5312 376.182C85.5085 377.307 87.0256 378.886 88.0824 380.92C89.1506 382.943 89.6847 385.301 89.6847 387.994C89.6847 390.676 89.1506 393.034 88.0824 395.068C87.0256 397.091 85.5085 398.67 83.5312 399.807C81.5653 400.932 79.2074 401.494 76.4574 401.494ZM76.5085 395.205C77.5085 395.205 78.3551 394.898 79.0483 394.284C79.7415 393.67 80.2699 392.818 80.6335 391.727C81.0085 390.636 81.196 389.375 81.196 387.943C81.196 386.489 81.0085 385.216 80.6335 384.125C80.2699 383.034 79.7415 382.182 79.0483 381.568C78.3551 380.955 77.5085 380.648 76.5085 380.648C75.4744 380.648 74.5994 380.955 73.8835 381.568C73.179 382.182 72.6392 383.034 72.2642 384.125C71.9006 385.216 71.7188 386.489 71.7188 387.943C71.7188 389.375 71.9006 390.636 72.2642 391.727C72.6392 392.818 73.179 393.67 73.8835 394.284C74.5994 394.898 75.4744 395.205 76.5085 395.205ZM101.472 394.131L101.506 384.193H102.665L110.028 374.818H119.472L108.528 388.25H106.33L101.472 394.131ZM93.9545 401V366.091H102.29V401H93.9545ZM110.216 401L103.364 390.125L108.852 384.21L119.847 401H110.216ZM122.455 401V374.818H130.79V401H122.455ZM126.631 371.767C125.46 371.767 124.455 371.381 123.614 370.608C122.773 369.824 122.352 368.881 122.352 367.778C122.352 366.687 122.773 365.756 123.614 364.983C124.455 364.199 125.46 363.807 126.631 363.807C127.813 363.807 128.818 364.199 129.648 364.983C130.489 365.756 130.909 366.687 130.909 367.778C130.909 368.881 130.489 369.824 129.648 370.608C128.818 371.381 127.813 371.767 126.631 371.767ZM144.43 386.068V401H136.095V374.818H144.021V379.625H144.311C144.891 378.023 145.879 376.767 147.277 375.858C148.675 374.938 150.339 374.477 152.271 374.477C154.112 374.477 155.709 374.892 157.061 375.722C158.425 376.54 159.482 377.687 160.232 379.165C160.993 380.631 161.368 382.347 161.357 384.312V401H153.021V385.949C153.033 384.494 152.663 383.358 151.913 382.54C151.175 381.722 150.146 381.312 148.828 381.312C147.953 381.312 147.18 381.506 146.51 381.892C145.851 382.267 145.339 382.807 144.976 383.511C144.624 384.216 144.442 385.068 144.43 386.068ZM178.722 411.364C176.233 411.364 174.102 411.017 172.33 410.324C170.557 409.631 169.165 408.682 168.153 407.477C167.142 406.273 166.534 404.909 166.33 403.386L174.222 402.943C174.369 403.477 174.642 403.943 175.04 404.341C175.449 404.739 175.977 405.045 176.625 405.261C177.284 405.477 178.057 405.585 178.943 405.585C180.341 405.585 181.494 405.244 182.403 404.562C183.324 403.892 183.784 402.716 183.784 401.034V396.432H183.494C183.165 397.239 182.665 397.96 181.994 398.597C181.324 399.233 180.489 399.733 179.489 400.097C178.5 400.46 177.364 400.642 176.08 400.642C174.17 400.642 172.42 400.199 170.83 399.312C169.25 398.415 167.983 397.028 167.028 395.153C166.085 393.267 165.614 390.841 165.614 387.875C165.614 384.818 166.102 382.301 167.08 380.324C168.057 378.335 169.335 376.864 170.915 375.909C172.506 374.955 174.216 374.477 176.045 374.477C177.42 374.477 178.597 374.716 179.574 375.193C180.563 375.659 181.375 376.261 182.011 377C182.648 377.739 183.131 378.506 183.46 379.301H183.699V374.818H192V401.102C192 403.318 191.443 405.188 190.33 406.71C189.216 408.233 187.659 409.386 185.659 410.17C183.659 410.966 181.347 411.364 178.722 411.364ZM178.977 394.574C179.989 394.574 180.852 394.307 181.568 393.773C182.284 393.239 182.835 392.472 183.222 391.472C183.608 390.472 183.801 389.273 183.801 387.875C183.801 386.455 183.608 385.233 183.222 384.21C182.847 383.176 182.295 382.381 181.568 381.824C180.852 381.267 179.989 380.989 178.977 380.989C177.943 380.989 177.068 381.273 176.352 381.841C175.636 382.409 175.091 383.21 174.716 384.244C174.352 385.267 174.17 386.477 174.17 387.875C174.17 389.273 174.358 390.472 174.733 391.472C175.108 392.472 175.648 393.239 176.352 393.773C177.068 394.307 177.943 394.574 178.977 394.574ZM207.626 401V366.091H222.183C224.797 366.091 226.984 366.46 228.746 367.199C230.518 367.937 231.848 368.972 232.734 370.301C233.632 371.631 234.081 373.17 234.081 374.92C234.081 376.25 233.803 377.438 233.246 378.483C232.689 379.517 231.922 380.375 230.945 381.057C229.967 381.739 228.837 382.216 227.553 382.489V382.83C228.962 382.898 230.263 383.278 231.456 383.972C232.661 384.665 233.626 385.631 234.354 386.869C235.081 388.097 235.445 389.551 235.445 391.233C235.445 393.108 234.967 394.784 234.013 396.261C233.058 397.727 231.678 398.886 229.871 399.739C228.064 400.58 225.871 401 223.291 401H207.626ZM216.064 394.199H221.28C223.109 394.199 224.456 393.852 225.32 393.159C226.195 392.466 226.632 391.5 226.632 390.261C226.632 389.364 226.422 388.591 226.001 387.943C225.581 387.284 224.984 386.778 224.212 386.426C223.439 386.062 222.513 385.881 221.433 385.881H216.064V394.199ZM216.064 380.443H220.734C221.655 380.443 222.473 380.29 223.189 379.983C223.905 379.676 224.462 379.233 224.859 378.653C225.268 378.074 225.473 377.375 225.473 376.557C225.473 375.386 225.058 374.466 224.229 373.795C223.399 373.125 222.28 372.79 220.871 372.79H216.064V380.443ZM239.501 401V374.818H247.837V401H239.501ZM243.678 371.767C242.507 371.767 241.501 371.381 240.661 370.608C239.82 369.824 239.399 368.881 239.399 367.778C239.399 366.687 239.82 365.756 240.661 364.983C241.501 364.199 242.507 363.807 243.678 363.807C244.859 363.807 245.865 364.199 246.695 364.983C247.536 365.756 247.956 366.687 247.956 367.778C247.956 368.881 247.536 369.824 246.695 370.608C245.865 371.381 244.859 371.767 243.678 371.767ZM261.477 366.091V401H253.142V366.091H261.477ZM275.118 366.091V401H266.783V366.091H275.118ZM309.605 376.557C309.491 375.307 308.986 374.335 308.088 373.642C307.202 372.938 305.935 372.585 304.287 372.585C303.196 372.585 302.287 372.727 301.56 373.011C300.832 373.295 300.287 373.688 299.923 374.188C299.56 374.676 299.372 375.239 299.361 375.875C299.338 376.398 299.44 376.858 299.668 377.256C299.906 377.653 300.247 378.006 300.69 378.312C301.145 378.608 301.69 378.869 302.327 379.097C302.963 379.324 303.679 379.523 304.474 379.693L307.474 380.375C309.202 380.75 310.724 381.25 312.043 381.875C313.372 382.5 314.486 383.244 315.384 384.108C316.293 384.972 316.98 385.966 317.446 387.091C317.912 388.216 318.151 389.477 318.162 390.875C318.151 393.08 317.594 394.972 316.491 396.551C315.389 398.131 313.804 399.341 311.736 400.182C309.679 401.023 307.196 401.443 304.287 401.443C301.366 401.443 298.821 401.006 296.651 400.131C294.48 399.256 292.793 397.926 291.588 396.142C290.384 394.358 289.764 392.102 289.73 389.375H297.81C297.878 390.5 298.179 391.438 298.713 392.188C299.247 392.938 299.98 393.506 300.912 393.892C301.855 394.278 302.946 394.472 304.185 394.472C305.321 394.472 306.287 394.318 307.082 394.011C307.889 393.705 308.509 393.278 308.94 392.733C309.372 392.187 309.594 391.562 309.605 390.858C309.594 390.199 309.389 389.636 308.991 389.17C308.594 388.693 307.98 388.284 307.151 387.943C306.332 387.591 305.287 387.267 304.014 386.972L300.366 386.119C297.344 385.426 294.963 384.307 293.224 382.761C291.486 381.205 290.622 379.102 290.634 376.455C290.622 374.295 291.202 372.403 292.372 370.778C293.543 369.153 295.162 367.886 297.23 366.977C299.298 366.068 301.656 365.614 304.304 365.614C307.009 365.614 309.355 366.074 311.344 366.994C313.344 367.903 314.895 369.182 315.997 370.83C317.099 372.477 317.662 374.386 317.685 376.557H309.605ZM334.662 401.494C331.923 401.494 329.56 400.955 327.571 399.875C325.594 398.784 324.071 397.233 323.003 395.222C321.946 393.199 321.418 390.795 321.418 388.011C321.418 385.307 321.952 382.943 323.02 380.92C324.088 378.886 325.594 377.307 327.537 376.182C329.48 375.045 331.77 374.477 334.406 374.477C336.27 374.477 337.974 374.767 339.52 375.347C341.065 375.926 342.401 376.784 343.526 377.92C344.651 379.057 345.526 380.46 346.151 382.131C346.776 383.79 347.088 385.693 347.088 387.841V389.92H324.332V385.08H339.332C339.321 384.193 339.111 383.403 338.702 382.71C338.293 382.017 337.73 381.477 337.014 381.091C336.31 380.693 335.497 380.494 334.577 380.494C333.645 380.494 332.81 380.705 332.071 381.125C331.332 381.534 330.747 382.097 330.315 382.812C329.884 383.517 329.656 384.318 329.634 385.216V390.142C329.634 391.21 329.844 392.148 330.264 392.955C330.685 393.75 331.281 394.369 332.054 394.812C332.827 395.256 333.747 395.477 334.815 395.477C335.554 395.477 336.224 395.375 336.827 395.17C337.429 394.966 337.946 394.665 338.378 394.267C338.81 393.869 339.134 393.381 339.349 392.801L347.003 393.023C346.685 394.739 345.986 396.233 344.906 397.506C343.838 398.767 342.435 399.75 340.696 400.455C338.957 401.148 336.946 401.494 334.662 401.494ZM359.68 386.068V401H351.345V374.818H359.271V379.625H359.561C360.141 378.023 361.129 376.767 362.527 375.858C363.925 374.938 365.589 374.477 367.521 374.477C369.362 374.477 370.959 374.892 372.311 375.722C373.675 376.54 374.732 377.687 375.482 379.165C376.243 380.631 376.618 382.347 376.607 384.312V401H368.271V385.949C368.283 384.494 367.913 383.358 367.163 382.54C366.425 381.722 365.396 381.312 364.078 381.312C363.203 381.312 362.43 381.506 361.76 381.892C361.101 382.267 360.589 382.807 360.226 383.511C359.874 384.216 359.692 385.068 359.68 386.068ZM396.545 374.818V380.955H380.028V374.818H396.545ZM383.489 368.545H391.824V392.767C391.824 393.278 391.903 393.693 392.062 394.011C392.233 394.318 392.477 394.54 392.795 394.676C393.114 394.801 393.494 394.864 393.938 394.864C394.256 394.864 394.591 394.835 394.943 394.778C395.307 394.71 395.58 394.653 395.761 394.608L397.023 400.625C396.625 400.739 396.063 400.881 395.335 401.051C394.619 401.222 393.761 401.33 392.761 401.375C390.807 401.466 389.131 401.239 387.733 400.693C386.347 400.136 385.284 399.273 384.545 398.102C383.818 396.932 383.466 395.46 383.489 393.688V368.545ZM429.98 376.557C429.866 375.307 429.361 374.335 428.463 373.642C427.577 372.938 426.31 372.585 424.662 372.585C423.571 372.585 422.662 372.727 421.935 373.011C421.207 373.295 420.662 373.688 420.298 374.188C419.935 374.676 419.747 375.239 419.736 375.875C419.713 376.398 419.815 376.858 420.043 377.256C420.281 377.653 420.622 378.006 421.065 378.312C421.52 378.608 422.065 378.869 422.702 379.097C423.338 379.324 424.054 379.523 424.849 379.693L427.849 380.375C429.577 380.75 431.099 381.25 432.418 381.875C433.747 382.5 434.861 383.244 435.759 384.108C436.668 384.972 437.355 385.966 437.821 387.091C438.287 388.216 438.526 389.477 438.537 390.875C438.526 393.08 437.969 394.972 436.866 396.551C435.764 398.131 434.179 399.341 432.111 400.182C430.054 401.023 427.571 401.443 424.662 401.443C421.741 401.443 419.196 401.006 417.026 400.131C414.855 399.256 413.168 397.926 411.963 396.142C410.759 394.358 410.139 392.102 410.105 389.375H418.185C418.253 390.5 418.554 391.438 419.088 392.188C419.622 392.938 420.355 393.506 421.287 393.892C422.23 394.278 423.321 394.472 424.56 394.472C425.696 394.472 426.662 394.318 427.457 394.011C428.264 393.705 428.884 393.278 429.315 392.733C429.747 392.187 429.969 391.562 429.98 390.858C429.969 390.199 429.764 389.636 429.366 389.17C428.969 388.693 428.355 388.284 427.526 387.943C426.707 387.591 425.662 387.267 424.389 386.972L420.741 386.119C417.719 385.426 415.338 384.307 413.599 382.761C411.861 381.205 410.997 379.102 411.009 376.455C410.997 374.295 411.577 372.403 412.747 370.778C413.918 369.153 415.537 367.886 417.605 366.977C419.673 366.068 422.031 365.614 424.679 365.614C427.384 365.614 429.73 366.074 431.719 366.994C433.719 367.903 435.27 369.182 436.372 370.83C437.474 372.477 438.037 374.386 438.06 376.557H429.98ZM459.69 389.699V374.818H468.009V401H460.065V396.125H459.793C459.213 397.727 458.224 399 456.827 399.943C455.44 400.875 453.764 401.341 451.798 401.341C450.014 401.341 448.446 400.932 447.094 400.114C445.741 399.295 444.69 398.153 443.94 396.688C443.19 395.21 442.81 393.483 442.798 391.506V374.818H451.134V389.869C451.145 391.29 451.52 392.409 452.259 393.227C452.997 394.045 454.003 394.455 455.276 394.455C456.105 394.455 456.849 394.273 457.509 393.909C458.179 393.534 458.707 392.994 459.094 392.29C459.491 391.574 459.69 390.71 459.69 389.699ZM485.536 401.494C482.774 401.494 480.405 400.926 478.428 399.79C476.462 398.653 474.95 397.074 473.893 395.051C472.837 393.017 472.308 390.665 472.308 387.994C472.308 385.312 472.837 382.96 473.893 380.938C474.962 378.903 476.479 377.318 478.445 376.182C480.422 375.045 482.78 374.477 485.518 374.477C487.939 374.477 490.047 374.915 491.842 375.79C493.649 376.665 495.058 377.903 496.07 379.506C497.092 381.097 497.632 382.966 497.689 385.114H489.899C489.74 383.773 489.286 382.722 488.536 381.96C487.797 381.199 486.831 380.818 485.638 380.818C484.672 380.818 483.825 381.091 483.098 381.636C482.371 382.17 481.803 382.966 481.393 384.023C480.996 385.068 480.797 386.364 480.797 387.909C480.797 389.455 480.996 390.761 481.393 391.83C481.803 392.886 482.371 393.687 483.098 394.233C483.825 394.767 484.672 395.034 485.638 395.034C486.411 395.034 487.092 394.869 487.683 394.54C488.286 394.21 488.78 393.727 489.166 393.091C489.553 392.443 489.797 391.659 489.899 390.739H497.689C497.609 392.898 497.07 394.784 496.07 396.398C495.081 398.011 493.689 399.267 491.893 400.165C490.109 401.051 487.99 401.494 485.536 401.494ZM514.176 401.494C511.415 401.494 509.045 400.926 507.068 399.79C505.102 398.653 503.591 397.074 502.534 395.051C501.477 393.017 500.949 390.665 500.949 387.994C500.949 385.312 501.477 382.96 502.534 380.938C503.602 378.903 505.119 377.318 507.085 376.182C509.063 375.045 511.42 374.477 514.159 374.477C516.58 374.477 518.688 374.915 520.483 375.79C522.29 376.665 523.699 377.903 524.71 379.506C525.733 381.097 526.273 382.966 526.33 385.114H518.54C518.381 383.773 517.926 382.722 517.176 381.96C516.438 381.199 515.472 380.818 514.278 380.818C513.313 380.818 512.466 381.091 511.739 381.636C511.011 382.17 510.443 382.966 510.034 384.023C509.636 385.068 509.438 386.364 509.438 387.909C509.438 389.455 509.636 390.761 510.034 391.83C510.443 392.886 511.011 393.687 511.739 394.233C512.466 394.767 513.313 395.034 514.278 395.034C515.051 395.034 515.733 394.869 516.324 394.54C516.926 394.21 517.42 393.727 517.807 393.091C518.193 392.443 518.438 391.659 518.54 390.739H526.33C526.25 392.898 525.71 394.784 524.71 396.398C523.722 398.011 522.33 399.267 520.534 400.165C518.75 401.051 516.631 401.494 514.176 401.494ZM542.834 401.494C540.095 401.494 537.732 400.955 535.743 399.875C533.766 398.784 532.243 397.233 531.175 395.222C530.118 393.199 529.589 390.795 529.589 388.011C529.589 385.307 530.124 382.943 531.192 380.92C532.26 378.886 533.766 377.307 535.709 376.182C537.652 375.045 539.942 374.477 542.578 374.477C544.442 374.477 546.146 374.767 547.692 375.347C549.237 375.926 550.572 376.784 551.697 377.92C552.822 379.057 553.697 380.46 554.322 382.131C554.947 383.79 555.26 385.693 555.26 387.841V389.92H532.504V385.08H547.504C547.493 384.193 547.283 383.403 546.874 382.71C546.464 382.017 545.902 381.477 545.186 381.091C544.482 380.693 543.669 380.494 542.749 380.494C541.817 380.494 540.982 380.705 540.243 381.125C539.504 381.534 538.919 382.097 538.487 382.812C538.055 383.517 537.828 384.318 537.805 385.216V390.142C537.805 391.21 538.016 392.148 538.436 392.955C538.857 393.75 539.453 394.369 540.226 394.812C540.999 395.256 541.919 395.477 542.987 395.477C543.726 395.477 544.396 395.375 544.999 395.17C545.601 394.966 546.118 394.665 546.55 394.267C546.982 393.869 547.305 393.381 547.521 392.801L555.175 393.023C554.857 394.739 554.158 396.233 553.078 397.506C552.01 398.767 550.607 399.75 548.868 400.455C547.129 401.148 545.118 401.494 542.834 401.494ZM582.375 382.812L574.722 383.017C574.642 382.472 574.426 381.989 574.074 381.568C573.722 381.136 573.261 380.801 572.693 380.562C572.136 380.312 571.489 380.188 570.75 380.188C569.784 380.188 568.96 380.381 568.278 380.767C567.608 381.153 567.278 381.676 567.29 382.335C567.278 382.847 567.483 383.29 567.903 383.665C568.335 384.04 569.102 384.341 570.205 384.568L575.25 385.523C577.864 386.023 579.807 386.852 581.08 388.011C582.364 389.17 583.011 390.705 583.023 392.614C583.011 394.409 582.477 395.972 581.42 397.301C580.375 398.631 578.943 399.665 577.125 400.403C575.307 401.131 573.227 401.494 570.886 401.494C567.148 401.494 564.199 400.727 562.04 399.193C559.892 397.648 558.665 395.58 558.358 392.989L566.591 392.784C566.773 393.739 567.244 394.466 568.006 394.966C568.767 395.466 569.739 395.716 570.92 395.716C571.989 395.716 572.858 395.517 573.528 395.119C574.199 394.722 574.54 394.193 574.551 393.534C574.54 392.943 574.278 392.472 573.767 392.119C573.256 391.756 572.455 391.472 571.364 391.267L566.795 390.398C564.17 389.92 562.216 389.04 560.932 387.756C559.648 386.46 559.011 384.812 559.023 382.812C559.011 381.062 559.477 379.568 560.42 378.33C561.364 377.08 562.705 376.125 564.443 375.466C566.182 374.807 568.233 374.477 570.597 374.477C574.142 374.477 576.938 375.222 578.983 376.71C581.028 378.187 582.159 380.222 582.375 382.812ZM609.984 382.812L602.331 383.017C602.251 382.472 602.036 381.989 601.683 381.568C601.331 381.136 600.871 380.801 600.303 380.562C599.746 380.312 599.098 380.188 598.359 380.188C597.393 380.188 596.57 380.381 595.888 380.767C595.217 381.153 594.888 381.676 594.899 382.335C594.888 382.847 595.092 383.29 595.513 383.665C595.945 384.04 596.712 384.341 597.814 384.568L602.859 385.523C605.473 386.023 607.416 386.852 608.689 388.011C609.973 389.17 610.621 390.705 610.632 392.614C610.621 394.409 610.087 395.972 609.03 397.301C607.984 398.631 606.553 399.665 604.734 400.403C602.916 401.131 600.837 401.494 598.496 401.494C594.757 401.494 591.808 400.727 589.649 399.193C587.501 397.648 586.274 395.58 585.967 392.989L594.2 392.784C594.382 393.739 594.854 394.466 595.615 394.966C596.376 395.466 597.348 395.716 598.53 395.716C599.598 395.716 600.467 395.517 601.138 395.119C601.808 394.722 602.149 394.193 602.161 393.534C602.149 392.943 601.888 392.472 601.376 392.119C600.865 391.756 600.064 391.472 598.973 391.267L594.405 390.398C591.78 389.92 589.825 389.04 588.541 387.756C587.257 386.46 586.621 384.812 586.632 382.812C586.621 381.062 587.087 379.568 588.03 378.33C588.973 377.08 590.314 376.125 592.053 375.466C593.791 374.807 595.842 374.477 598.206 374.477C601.751 374.477 604.547 375.222 606.592 376.71C608.638 378.187 609.768 380.222 609.984 382.812ZM629.616 374.818V380.955H612.776V374.818H629.616ZM616.287 401V373.489C616.287 371.466 616.668 369.79 617.429 368.46C618.19 367.119 619.247 366.119 620.599 365.46C621.952 364.79 623.514 364.455 625.287 364.455C626.446 364.455 627.537 364.545 628.56 364.727C629.594 364.898 630.361 365.051 630.861 365.188L629.531 371.29C629.224 371.187 628.849 371.102 628.406 371.034C627.974 370.966 627.565 370.932 627.179 370.932C626.202 370.932 625.531 371.148 625.168 371.58C624.804 372.011 624.622 372.602 624.622 373.352V401H616.287ZM650.518 389.699V374.818H658.837V401H650.893V396.125H650.621C650.041 397.727 649.053 399 647.655 399.943C646.268 400.875 644.592 401.341 642.626 401.341C640.842 401.341 639.274 400.932 637.922 400.114C636.57 399.295 635.518 398.153 634.768 396.688C634.018 395.21 633.638 393.483 633.626 391.506V374.818H641.962V389.869C641.973 391.29 642.348 392.409 643.087 393.227C643.825 394.045 644.831 394.455 646.104 394.455C646.933 394.455 647.678 394.273 648.337 393.909C649.007 393.534 649.536 392.994 649.922 392.29C650.32 391.574 650.518 390.71 650.518 389.699ZM672.477 366.091V401H664.142V366.091H672.477ZM686.118 366.091V401H677.783V366.091H686.118ZM696.52 410.818C695.52 410.818 694.577 410.739 693.69 410.58C692.804 410.432 692.043 410.233 691.406 409.983L693.247 403.932C694.065 404.205 694.804 404.364 695.463 404.409C696.134 404.455 696.707 404.347 697.185 404.085C697.673 403.835 698.048 403.386 698.31 402.739L698.634 401.955L689.327 374.818H698.054L702.878 393.5H703.151L708.043 374.818H716.821L706.952 403.506C706.474 404.938 705.798 406.199 704.923 407.29C704.06 408.392 702.94 409.256 701.565 409.881C700.202 410.506 698.52 410.818 696.52 410.818Z" fill="#F8C4C4"/>
<path d="M287 297H299C300.591 297 302.117 296.352 303.243 295.199C304.368 294.046 305 292.482 305 290.852V220.148C305 218.518 304.368 216.954 303.243 215.801C302.117 214.648 300.591 214 299 214H287V297Z" fill="white" stroke="#020064" stroke-linecap="round" stroke-linejoin="round"/>
<path d="M376.676 204.25C378.998 180.959 382.085 131 362.656 131C358.939 131 355.374 132.478 352.745 135.107C350.117 137.737 348.64 141.304 348.64 145.024V149.701C348.64 183.987 333.784 219.843 305 219.843V291.532H308.677C326.644 291.532 335.139 304 367.331 304H421.848C425.153 304 428.323 302.686 430.659 300.348C432.996 298.01 434.309 294.839 434.309 291.532C434.309 288.226 432.996 285.055 430.659 282.716C428.323 280.378 425.153 279.065 421.848 279.065H428.079C431.384 279.065 434.553 277.751 436.89 275.413C439.227 273.075 440.539 269.904 440.539 266.597C440.539 263.29 439.227 260.119 436.89 257.781C434.553 255.443 431.384 254.129 428.079 254.129H434.309C437.614 254.129 440.783 252.816 443.12 250.478C445.457 248.14 446.77 244.968 446.77 241.662C446.77 238.355 445.457 235.184 443.12 232.846C440.783 230.508 437.614 229.194 434.309 229.194H440.539C443.844 229.194 447.014 227.881 449.35 225.543C451.687 223.204 453 220.033 453 216.727C453 213.42 451.687 210.249 449.35 207.911C447.014 205.572 443.844 204.259 440.539 204.259L376.676 204.25Z" fill="white"/>
<path d="M363 205H376" stroke="#020064" stroke-linecap="round" stroke-linejoin="round"/>
<path d="M421 279H415" stroke="#020064" stroke-linecap="round" stroke-linejoin="round"/>
<path d="M428 254H421" stroke="#020064" stroke-linecap="round" stroke-linejoin="round"/>
<path d="M435 230H428" stroke="#020064" stroke-linecap="round" stroke-linejoin="round"/>
<path d="M376.676 204.25C378.998 180.959 382.085 131 362.656 131C358.939 131 355.374 132.478 352.745 135.107C350.117 137.737 348.64 141.304 348.64 145.024V149.701C348.64 183.987 333.784 219.843 305 219.843V291.532H308.677C326.644 291.532 335.139 304 367.331 304H421.848C425.153 304 428.323 302.686 430.659 300.348C432.996 298.01 434.309 294.839 434.309 291.532C434.309 288.226 432.996 285.055 430.659 282.716C428.323 280.378 425.153 279.065 421.848 279.065H428.079C431.384 279.065 434.553 277.751 436.89 275.413C439.227 273.075 440.539 269.904 440.539 266.597C440.539 263.29 439.227 260.119 436.89 257.781C434.553 255.443 431.384 254.129 428.079 254.129H434.309C437.614 254.129 440.783 252.816 443.12 250.478C445.457 248.14 446.77 244.968 446.77 241.662C446.77 238.355 445.457 235.184 443.12 232.846C440.783 230.508 437.614 229.194 434.309 229.194H440.539C443.844 229.194 447.014 227.881 449.35 225.543C451.687 223.204 453 220.033 453 216.727C453 213.42 451.687 210.249 449.35 207.911C447.014 205.572 443.844 204.259 440.539 204.259L376.676 204.25Z" stroke="#020064" stroke-linecap="round" stroke-linejoin="round"/>
<path d="M242 207H287V304H242V207Z" fill="#F8C4C4"/>
<path d="M242 207H287V304H242V207Z" stroke="#020064" stroke-linecap="round" stroke-linejoin="round"/>
<path d="M364.157 3.96221L373.572 23.431C373.944 24.2051 374.495 24.8747 375.178 25.3812C375.861 25.8877 376.656 26.2157 377.492 26.3366L398.545 29.4621C399.506 29.6046 400.409 30.0186 401.151 30.6573C401.893 31.296 402.445 32.134 402.745 33.0765C403.045 34.0189 403.081 35.0282 402.848 35.9903C402.616 36.9523 402.124 37.8287 401.429 38.5204L386.192 53.6799C385.593 54.2798 385.144 55.0183 384.884 55.8327C384.624 56.6472 384.56 57.5137 384.698 58.3588L388.291 79.7693C388.461 80.7477 388.358 81.7551 387.994 82.6768C387.631 83.5985 387.021 84.3974 386.234 84.9825C385.447 85.5676 384.515 85.9155 383.544 85.9865C382.573 86.0574 381.602 85.8487 380.742 85.3839L361.911 75.2682C361.164 74.867 360.333 74.6574 359.489 74.6574C358.644 74.6574 357.813 74.867 357.066 75.2682L338.235 85.3746C337.375 85.8393 336.404 86.0481 335.433 85.9771C334.462 85.9061 333.53 85.5583 332.743 84.9731C331.957 84.388 331.347 83.5891 330.983 82.6674C330.619 81.7458 330.516 80.7384 330.686 79.7599L334.28 58.3494C334.418 57.5043 334.355 56.6375 334.095 55.8228C333.835 55.0081 333.385 54.2697 332.785 53.6706L317.571 38.5016C316.876 37.81 316.384 36.9336 316.152 35.9715C315.919 35.0095 315.955 34.0002 316.255 33.0577C316.555 32.1153 317.107 31.2773 317.849 30.6386C318.591 29.9999 319.494 29.5858 320.455 29.4433L341.508 26.3179C342.344 26.197 343.139 25.869 343.822 25.3625C344.505 24.856 345.056 24.1864 345.428 23.4123L354.824 3.96221C355.254 3.07311 355.919 2.32445 356.743 1.80095C357.568 1.27745 358.52 1 359.491 1C360.462 1 361.414 1.27745 362.238 1.80095C363.063 2.32445 363.728 3.07311 364.157 3.96221Z" fill="#F8C4C4"/>
<path d="M364.157 3.96221L373.572 23.431C373.944 24.2051 374.495 24.8747 375.178 25.3812C375.861 25.8877 376.656 26.2157 377.492 26.3366L398.545 29.4621C399.506 29.6046 400.409 30.0186 401.151 30.6573C401.893 31.296 402.445 32.134 402.745 33.0765C403.045 34.0189 403.081 35.0282 402.848 35.9903C402.616 36.9523 402.124 37.8287 401.429 38.5204L386.192 53.6799C385.593 54.2798 385.144 55.0183 384.884 55.8327C384.624 56.6472 384.56 57.5137 384.698 58.3588L388.291 79.7693C388.461 80.7477 388.358 81.7551 387.994 82.6768C387.631 83.5985 387.021 84.3974 386.234 84.9825C385.447 85.5676 384.515 85.9155 383.544 85.9864C382.573 86.0574 381.602 85.8487 380.742 85.384L361.911 75.2682C361.164 74.867 360.333 74.6574 359.489 74.6574C358.644 74.6574 357.813 74.867 357.066 75.2682L338.235 85.3746C337.375 85.8393 336.404 86.0481 335.433 85.9771C334.462 85.9061 333.53 85.5582 332.743 84.9731C331.957 84.388 331.347 83.5891 330.983 82.6674C330.619 81.7458 330.516 80.7384 330.686 79.7599L334.28 58.3494C334.418 57.5043 334.355 56.6375 334.095 55.8228C333.835 55.0081 333.385 54.2697 332.785 53.6706L317.571 38.5016C316.876 37.81 316.384 36.9336 316.152 35.9715C315.919 35.0095 315.955 34.0002 316.255 33.0577C316.555 32.1153 317.107 31.2773 317.849 30.6386C318.591 29.9999 319.494 29.5858 320.455 29.4433L341.508 26.3179C342.344 26.197 343.139 25.869 343.822 25.3625C344.505 24.856 345.056 24.1864 345.428 23.4123L354.824 3.96221C355.254 3.07311 355.919 2.32445 356.743 1.80095C357.568 1.27745 358.52 1 359.491 1C360.462 1 361.414 1.27745 362.238 1.80095C363.063 2.32445 363.728 3.07311 364.157 3.96221Z" stroke="#020064" stroke-linecap="round" stroke-linejoin="round"/>
<path d="M254.637 45.6756L269.573 55.2905C270.165 55.6732 270.84 55.9023 271.538 55.9581C272.237 56.0138 272.938 55.8944 273.581 55.6102L289.806 48.4872C290.546 48.1614 291.361 48.054 292.158 48.1771C292.956 48.3002 293.703 48.649 294.316 49.1839C294.929 49.7188 295.383 50.4184 295.627 51.2035C295.871 51.9887 295.895 52.8279 295.696 53.6261L291.361 71.1162C291.188 71.8081 291.182 72.5324 291.342 73.2275C291.502 73.9225 291.825 74.5677 292.282 75.1079L303.928 88.6722C304.46 89.2916 304.811 90.0505 304.942 90.8632C305.074 91.6759 304.98 92.51 304.672 93.2711C304.363 94.0322 303.853 94.69 303.198 95.1702C302.543 95.6503 301.769 95.9336 300.965 95.988L283.35 97.1775C282.651 97.2252 281.974 97.4457 281.377 97.82C280.78 98.1943 280.28 98.7111 279.922 99.3262L270.894 114.842C270.482 115.55 269.885 116.126 269.169 116.505C268.453 116.884 267.648 117.051 266.844 116.986C266.041 116.922 265.271 116.629 264.622 116.14C263.973 115.651 263.471 114.986 263.173 114.221L256.615 97.469C256.357 96.8042 255.943 96.2139 255.411 95.7493C254.879 95.2847 254.243 94.96 253.56 94.8032L236.364 90.8115C235.578 90.6299 234.858 90.2273 234.285 89.6491C233.711 89.071 233.308 88.3404 233.119 87.54C232.931 86.7397 232.966 85.9014 233.22 85.1202C233.474 84.339 233.937 83.646 234.556 83.1196L248.121 71.5723C248.66 71.1157 249.082 70.5313 249.35 69.8701C249.618 69.2088 249.724 68.4906 249.658 67.7781L248.043 49.8131C247.969 48.9942 248.121 48.1706 248.482 47.4353C248.842 46.7 249.397 46.0824 250.082 45.652C250.768 45.2217 251.558 44.9959 252.363 45.0001C253.168 45.0042 253.955 45.2382 254.637 45.6756Z" fill="#F8C4C4"/>
<path d="M254.637 45.6756L269.573 55.2905C270.165 55.6732 270.84 55.9023 271.538 55.9581C272.237 56.0138 272.938 55.8944 273.581 55.6102L289.806 48.4872C290.546 48.1614 291.361 48.054 292.158 48.1771C292.956 48.3002 293.703 48.649 294.316 49.1839C294.929 49.7188 295.383 50.4184 295.627 51.2035C295.871 51.9887 295.895 52.8279 295.696 53.6261L291.361 71.1162C291.188 71.8081 291.182 72.5324 291.342 73.2275C291.502 73.9225 291.825 74.5677 292.282 75.1079L303.928 88.6722C304.46 89.2916 304.811 90.0505 304.942 90.8632C305.074 91.6759 304.98 92.51 304.672 93.2711C304.363 94.0322 303.853 94.69 303.198 95.1702C302.543 95.6503 301.769 95.9336 300.965 95.988L283.35 97.1775C282.651 97.2252 281.974 97.4457 281.377 97.82C280.78 98.1943 280.28 98.7111 279.922 99.3262L270.894 114.842C270.482 115.55 269.885 116.126 269.169 116.505C268.453 116.884 267.648 117.051 266.844 116.986C266.041 116.922 265.271 116.629 264.622 116.14C263.973 115.651 263.471 114.986 263.173 114.221L256.615 97.469C256.357 96.8042 255.943 96.2139 255.411 95.7493C254.879 95.2847 254.243 94.96 253.56 94.8032L236.364 90.8115C235.578 90.6299 234.858 90.2273 234.285 89.6491C233.711 89.071 233.308 88.3404 233.119 87.54C232.931 86.7396 232.966 85.9014 233.22 85.1202C233.474 84.339 233.937 83.646 234.556 83.1196L248.121 71.5723C248.66 71.1157 249.082 70.5313 249.35 69.8701C249.618 69.2088 249.724 68.4906 249.658 67.7781L248.043 49.8131C247.969 48.9942 248.121 48.1706 248.482 47.4353C248.842 46.7 249.397 46.0824 250.082 45.652C250.768 45.2217 251.558 44.9959 252.363 45.0001C253.168 45.0042 253.955 45.2382 254.637 45.6756Z" stroke="#020064" stroke-linecap="round" stroke-linejoin="round"/>
<path d="M195.438 132.875L208.851 133.576C209.383 133.604 209.914 133.498 210.397 133.268C210.88 133.039 211.302 132.691 211.625 132.257L219.791 121.321C220.164 120.821 220.665 120.439 221.239 120.217C221.813 119.995 222.436 119.942 223.037 120.064C223.639 120.186 224.195 120.479 224.643 120.909C225.09 121.338 225.412 121.888 225.571 122.495L229.066 135.799C229.205 136.326 229.467 136.81 229.828 137.21C230.19 137.61 230.64 137.914 231.142 138.097L243.811 142.688C244.388 142.897 244.897 143.268 245.28 143.759C245.663 144.25 245.904 144.841 245.977 145.465C246.049 146.089 245.95 146.721 245.691 147.291C245.432 147.86 245.022 148.344 244.509 148.687L233.254 156.207C232.808 156.506 232.44 156.911 232.18 157.388C231.92 157.864 231.777 158.398 231.762 158.944L231.424 172.716C231.409 173.345 231.222 173.956 230.886 174.481C230.549 175.007 230.076 175.425 229.519 175.689C228.963 175.953 228.346 176.052 227.738 175.975C227.13 175.897 226.554 175.647 226.078 175.252L215.639 166.6C215.225 166.255 214.735 166.019 214.212 165.912C213.689 165.806 213.149 165.831 212.637 165.987L199.763 169.913C199.176 170.093 198.551 170.101 197.959 169.935C197.368 169.769 196.833 169.437 196.417 168.976C196 168.514 195.718 167.942 195.602 167.325C195.487 166.707 195.542 166.069 195.762 165.482L200.552 152.613C200.745 152.103 200.813 151.552 200.75 151.009C200.687 150.465 200.495 149.946 200.192 149.496L192.578 138.148C192.231 137.631 192.033 137.026 192.004 136.399C191.975 135.773 192.117 135.15 192.414 134.602C192.712 134.054 193.152 133.602 193.686 133.297C194.221 132.991 194.827 132.845 195.438 132.875Z" fill="#B0D9FF"/>
<path d="M195.438 132.875L208.851 133.576C209.383 133.604 209.914 133.498 210.397 133.268C210.88 133.039 211.302 132.691 211.625 132.257L219.791 121.321C220.164 120.821 220.665 120.439 221.239 120.217C221.813 119.995 222.436 119.942 223.037 120.064C223.639 120.186 224.195 120.479 224.643 120.909C225.09 121.338 225.412 121.888 225.571 122.495L229.066 135.799C229.205 136.326 229.467 136.81 229.828 137.21C230.19 137.61 230.64 137.914 231.142 138.097L243.811 142.688C244.388 142.897 244.897 143.268 245.28 143.759C245.663 144.25 245.904 144.841 245.977 145.465C246.049 146.089 245.95 146.721 245.691 147.291C245.432 147.86 245.022 148.344 244.509 148.687L233.254 156.207C232.808 156.506 232.44 156.911 232.18 157.388C231.92 157.864 231.777 158.398 231.762 158.944L231.424 172.716C231.409 173.345 231.222 173.956 230.886 174.481C230.549 175.007 230.076 175.425 229.519 175.689C228.963 175.953 228.346 176.052 227.738 175.975C227.13 175.897 226.554 175.647 226.078 175.252L215.639 166.6C215.225 166.255 214.735 166.019 214.212 165.912C213.689 165.806 213.149 165.831 212.637 165.987L199.763 169.913C199.176 170.093 198.551 170.101 197.959 169.935C197.368 169.769 196.833 169.437 196.417 168.976C196 168.514 195.718 167.942 195.602 167.325C195.487 166.707 195.542 166.069 195.762 165.482L200.552 152.613C200.745 152.103 200.813 151.552 200.75 151.009C200.687 150.465 200.495 149.946 200.192 149.496L192.578 138.148C192.231 137.631 192.033 137.026 192.004 136.399C191.975 135.773 192.117 135.15 192.414 134.602C192.712 134.054 193.152 133.602 193.686 133.297C194.221 132.991 194.827 132.845 195.438 132.875Z" fill="#F8C4C4" stroke="#020064" stroke-linecap="round" stroke-linejoin="round"/>
<path d="M473.941 49.8189C474.016 48.9987 473.864 48.1734 473.503 47.4367C473.143 46.7 472.587 46.0812 471.9 45.6506C471.213 45.2199 470.422 44.9946 469.616 45.0001C468.81 45.0056 468.021 45.2418 467.34 45.6818L452.409 55.2959C451.817 55.6785 451.143 55.9077 450.445 55.9634C449.747 56.0191 449.046 55.8997 448.403 55.6156L432.184 48.4932C431.444 48.1693 430.63 48.0634 429.834 48.1873C429.038 48.3111 428.292 48.66 427.679 49.1943C427.067 49.7287 426.613 50.4273 426.369 51.2114C426.124 51.9955 426.099 52.8338 426.296 53.6316L430.629 71.1203C430.803 71.812 430.81 72.5365 430.65 73.2317C430.49 73.9269 430.167 74.572 429.709 75.1116L418.072 88.6747C417.541 89.2937 417.19 90.0522 417.058 90.8644C416.926 91.6767 417.02 92.5103 417.327 93.2713C417.635 94.0322 418.145 94.69 418.799 95.1704C419.453 95.6508 420.226 95.9346 421.029 95.9898L438.642 97.1792C439.34 97.2269 440.016 97.4474 440.613 97.8217C441.209 98.196 441.707 98.7128 442.064 99.3277L451.089 114.842C451.501 115.55 452.098 116.126 452.813 116.505C453.529 116.884 454.334 117.051 455.137 116.986C455.941 116.922 456.71 116.629 457.359 116.14C458.008 115.651 458.509 114.986 458.807 114.221L465.362 97.4707C465.621 96.8062 466.034 96.2161 466.567 95.7516C467.099 95.2871 467.734 94.9623 468.416 94.8051L485.633 90.8232C486.419 90.6423 487.14 90.2401 487.714 89.6623C488.287 89.0845 488.691 88.354 488.88 87.5536C489.069 86.7532 489.034 85.9149 488.781 85.1334C488.527 84.352 488.065 83.6586 487.446 83.1319L473.881 71.5857C473.342 71.1286 472.921 70.5442 472.653 69.8831C472.386 69.222 472.28 68.5042 472.345 67.7918L473.941 49.8189Z" fill="#B0D9FF"/>
<path d="M473.941 49.8189C474.016 48.9987 473.864 48.1734 473.503 47.4367C473.143 46.7 472.587 46.0812 471.9 45.6506C471.213 45.2199 470.422 44.9946 469.616 45.0001C468.81 45.0056 468.021 45.2418 467.34 45.6818L452.409 55.2959C451.817 55.6785 451.143 55.9077 450.445 55.9634C449.747 56.0191 449.046 55.8997 448.403 55.6156L432.184 48.4932C431.444 48.1679 430.63 48.0607 429.834 48.1837C429.038 48.3066 428.291 48.6549 427.678 49.1891C427.066 49.7233 426.612 50.422 426.367 51.2063C426.123 51.9906 426.098 52.8291 426.296 53.6269L430.629 71.1203C430.803 71.812 430.81 72.5365 430.65 73.2317C430.49 73.9269 430.167 74.572 429.709 75.1116L418.072 88.6747C417.541 89.2937 417.19 90.0522 417.058 90.8644C416.926 91.6767 417.02 92.5103 417.327 93.2713C417.635 94.0322 418.145 94.69 418.799 95.1704C419.453 95.6508 420.226 95.9346 421.029 95.9898L438.642 97.1792C439.34 97.2269 440.016 97.4474 440.613 97.8217C441.209 98.196 441.707 98.7128 442.064 99.3277L451.089 114.842C451.501 115.55 452.098 116.126 452.813 116.505C453.529 116.884 454.334 117.051 455.137 116.986C455.941 116.922 456.71 116.629 457.359 116.14C458.008 115.651 458.509 114.986 458.807 114.221L465.362 97.4707C465.621 96.8062 466.034 96.2161 466.567 95.7516C467.099 95.2871 467.734 94.9623 468.416 94.8051L485.633 90.8232C486.419 90.6423 487.14 90.2401 487.714 89.6623C488.287 89.0845 488.691 88.354 488.88 87.5536C489.069 86.7532 489.034 85.9149 488.781 85.1334C488.527 84.352 488.065 83.6586 487.446 83.1319L473.881 71.5857C473.342 71.1286 472.921 70.5442 472.653 69.8831C472.386 69.222 472.28 68.5042 472.345 67.7918L473.941 49.8189Z" fill="#F8C4C4" stroke="#020064" stroke-linecap="round" stroke-linejoin="round"/>
<path d="M528.418 138.148C528.766 137.631 528.967 137.024 528.996 136.396C529.026 135.768 528.883 135.144 528.584 134.595C528.286 134.046 527.843 133.593 527.306 133.289C526.77 132.985 526.161 132.842 525.549 132.875L512.14 133.576C511.608 133.605 511.077 133.5 510.594 133.27C510.11 133.04 509.689 132.692 509.367 132.257L501.198 121.321C500.826 120.821 500.324 120.439 499.751 120.217C499.177 119.995 498.554 119.942 497.953 120.064C497.352 120.186 496.796 120.479 496.348 120.909C495.9 121.338 495.579 121.888 495.42 122.495L491.931 135.799C491.791 136.326 491.53 136.81 491.168 137.21C490.807 137.61 490.356 137.914 489.855 138.097L477.194 142.688C476.616 142.896 476.105 143.266 475.722 143.757C475.338 144.248 475.096 144.839 475.023 145.464C474.95 146.089 475.05 146.722 475.31 147.292C475.571 147.861 475.982 148.345 476.497 148.687L487.744 156.207C488.191 156.504 488.56 156.909 488.82 157.386C489.08 157.863 489.222 158.398 489.235 158.944L489.577 172.716C489.593 173.345 489.779 173.956 490.116 174.481C490.452 175.007 490.926 175.425 491.482 175.689C492.038 175.953 492.655 176.052 493.263 175.975C493.871 175.897 494.446 175.647 494.923 175.252L505.372 166.6C505.785 166.256 506.274 166.02 506.796 165.913C507.318 165.806 507.858 165.832 508.368 165.987L521.239 169.913C521.826 170.092 522.451 170.1 523.042 169.934C523.633 169.768 524.167 169.436 524.584 168.975C525 168.514 525.283 167.942 525.4 167.325C525.516 166.707 525.462 166.069 525.243 165.482L520.45 152.613C520.259 152.102 520.193 151.552 520.255 151.009C520.318 150.466 520.509 149.947 520.81 149.496L528.418 138.148Z" fill="#F8C4C4"/>
<path d="M528.418 138.145C528.766 137.628 528.967 137.021 528.996 136.393C529.026 135.765 528.883 135.141 528.584 134.591C528.286 134.042 527.843 133.59 527.306 133.286C526.77 132.982 526.161 132.838 525.549 132.871L512.14 133.573C511.608 133.602 511.077 133.497 510.594 133.267C510.11 133.037 509.689 132.689 509.367 132.253L501.198 121.316C500.825 120.818 500.324 120.437 499.751 120.216C499.178 119.995 498.556 119.942 497.956 120.064C497.355 120.186 496.8 120.478 496.353 120.907C495.906 121.336 495.584 121.885 495.424 122.491L491.931 135.796C491.791 136.322 491.53 136.806 491.168 137.207C490.807 137.607 490.356 137.911 489.855 138.094L477.194 142.685C476.616 142.893 476.105 143.264 475.722 143.754C475.338 144.245 475.096 144.837 475.023 145.462C474.95 146.086 475.05 146.72 475.31 147.289C475.571 147.859 475.982 148.342 476.497 148.685L487.744 156.205C488.191 156.503 488.56 156.907 488.82 157.385C489.08 157.862 489.222 158.397 489.235 158.943L489.577 172.716C489.593 173.344 489.779 173.956 490.116 174.481C490.452 175.007 490.926 175.425 491.482 175.689C492.038 175.953 492.655 176.052 493.263 175.975C493.871 175.897 494.446 175.647 494.923 175.252L505.372 166.599C505.785 166.255 506.274 166.019 506.796 165.912C507.318 165.805 507.858 165.831 508.368 165.986L521.244 169.913C521.831 170.091 522.455 170.097 523.045 169.931C523.635 169.764 524.169 169.432 524.585 168.971C525.001 168.51 525.283 167.939 525.399 167.322C525.516 166.706 525.462 166.068 525.243 165.481L520.45 152.611C520.259 152.1 520.193 151.55 520.255 151.007C520.318 150.464 520.509 149.945 520.81 149.494L528.418 138.145Z" stroke="#020064" stroke-linecap="round" stroke-linejoin="round"/>
</svg>
