<svg width="475" height="421" viewBox="0 0 475 421" fill="none" xmlns="http://www.w3.org/2000/svg">
<path d="M2.64205 409V374.091H17.1989C19.8125 374.091 22 374.46 23.7614 375.199C25.5341 375.937 26.8636 376.972 27.75 378.301C28.6477 379.631 29.0966 381.17 29.0966 382.92C29.0966 384.25 28.8182 385.438 28.2614 386.483C27.7045 387.517 26.9375 388.375 25.9602 389.057C24.983 389.739 23.8523 390.216 22.5682 390.489V390.83C23.9773 390.898 25.2784 391.278 26.4716 391.972C27.6761 392.665 28.642 393.631 29.3693 394.869C30.0966 396.097 30.4602 397.551 30.4602 399.233C30.4602 401.108 29.983 402.784 29.0284 404.261C28.0739 405.727 26.6932 406.886 24.8864 407.739C23.0795 408.58 20.8864 409 18.3068 409H2.64205ZM11.0795 402.199H16.2955C18.125 402.199 19.4716 401.852 20.3352 401.159C21.2102 400.466 21.6477 399.5 21.6477 398.261C21.6477 397.364 21.4375 396.591 21.017 395.943C20.5966 395.284 20 394.778 19.2273 394.426C18.4545 394.062 17.5284 393.881 16.4489 393.881H11.0795V402.199ZM11.0795 388.443H15.75C16.6705 388.443 17.4886 388.29 18.2045 387.983C18.9205 387.676 19.4773 387.233 19.875 386.653C20.2841 386.074 20.4886 385.375 20.4886 384.557C20.4886 383.386 20.0739 382.466 19.2443 381.795C18.4148 381.125 17.2955 380.79 15.8864 380.79H11.0795V388.443ZM46.7386 409.494C43.9886 409.494 41.625 408.932 39.6477 407.807C37.6818 406.67 36.1648 405.091 35.0966 403.068C34.0398 401.034 33.5114 398.676 33.5114 395.994C33.5114 393.301 34.0398 390.943 35.0966 388.92C36.1648 386.886 37.6818 385.307 39.6477 384.182C41.625 383.045 43.9886 382.477 46.7386 382.477C49.4886 382.477 51.8466 383.045 53.8125 384.182C55.7898 385.307 57.3068 386.886 58.3636 388.92C59.4318 390.943 59.9659 393.301 59.9659 395.994C59.9659 398.676 59.4318 401.034 58.3636 403.068C57.3068 405.091 55.7898 406.67 53.8125 407.807C51.8466 408.932 49.4886 409.494 46.7386 409.494ZM46.7898 403.205C47.7898 403.205 48.6364 402.898 49.3295 402.284C50.0227 401.67 50.5511 400.818 50.9148 399.727C51.2898 398.636 51.4773 397.375 51.4773 395.943C51.4773 394.489 51.2898 393.216 50.9148 392.125C50.5511 391.034 50.0227 390.182 49.3295 389.568C48.6364 388.955 47.7898 388.648 46.7898 388.648C45.7557 388.648 44.8807 388.955 44.1648 389.568C43.4602 390.182 42.9205 391.034 42.5455 392.125C42.1818 393.216 42 394.489 42 395.943C42 397.375 42.1818 398.636 42.5455 399.727C42.9205 400.818 43.4602 401.67 44.1648 402.284C44.8807 402.898 45.7557 403.205 46.7898 403.205ZM76.4574 409.494C73.7074 409.494 71.3438 408.932 69.3665 407.807C67.4006 406.67 65.8835 405.091 64.8153 403.068C63.7585 401.034 63.2301 398.676 63.2301 395.994C63.2301 393.301 63.7585 390.943 64.8153 388.92C65.8835 386.886 67.4006 385.307 69.3665 384.182C71.3438 383.045 73.7074 382.477 76.4574 382.477C79.2074 382.477 81.5653 383.045 83.5312 384.182C85.5085 385.307 87.0256 386.886 88.0824 388.92C89.1506 390.943 89.6847 393.301 89.6847 395.994C89.6847 398.676 89.1506 401.034 88.0824 403.068C87.0256 405.091 85.5085 406.67 83.5312 407.807C81.5653 408.932 79.2074 409.494 76.4574 409.494ZM76.5085 403.205C77.5085 403.205 78.3551 402.898 79.0483 402.284C79.7415 401.67 80.2699 400.818 80.6335 399.727C81.0085 398.636 81.196 397.375 81.196 395.943C81.196 394.489 81.0085 393.216 80.6335 392.125C80.2699 391.034 79.7415 390.182 79.0483 389.568C78.3551 388.955 77.5085 388.648 76.5085 388.648C75.4744 388.648 74.5994 388.955 73.8835 389.568C73.179 390.182 72.6392 391.034 72.2642 392.125C71.9006 393.216 71.7188 394.489 71.7188 395.943C71.7188 397.375 71.9006 398.636 72.2642 399.727C72.6392 400.818 73.179 401.67 73.8835 402.284C74.5994 402.898 75.4744 403.205 76.5085 403.205ZM101.472 402.131L101.506 392.193H102.665L110.028 382.818H119.472L108.528 396.25H106.33L101.472 402.131ZM93.9545 409V374.091H102.29V409H93.9545ZM110.216 409L103.364 398.125L108.852 392.21L119.847 409H110.216ZM122.455 409V382.818H130.79V409H122.455ZM126.631 379.767C125.46 379.767 124.455 379.381 123.614 378.608C122.773 377.824 122.352 376.881 122.352 375.778C122.352 374.687 122.773 373.756 123.614 372.983C124.455 372.199 125.46 371.807 126.631 371.807C127.813 371.807 128.818 372.199 129.648 372.983C130.489 373.756 130.909 374.687 130.909 375.778C130.909 376.881 130.489 377.824 129.648 378.608C128.818 379.381 127.813 379.767 126.631 379.767ZM144.43 394.068V409H136.095V382.818H144.021V387.625H144.311C144.891 386.023 145.879 384.767 147.277 383.858C148.675 382.938 150.339 382.477 152.271 382.477C154.112 382.477 155.709 382.892 157.061 383.722C158.425 384.54 159.482 385.687 160.232 387.165C160.993 388.631 161.368 390.347 161.357 392.312V409H153.021V393.949C153.033 392.494 152.663 391.358 151.913 390.54C151.175 389.722 150.146 389.312 148.828 389.312C147.953 389.312 147.18 389.506 146.51 389.892C145.851 390.267 145.339 390.807 144.976 391.511C144.624 392.216 144.442 393.068 144.43 394.068ZM178.722 419.364C176.233 419.364 174.102 419.017 172.33 418.324C170.557 417.631 169.165 416.682 168.153 415.477C167.142 414.273 166.534 412.909 166.33 411.386L174.222 410.943C174.369 411.477 174.642 411.943 175.04 412.341C175.449 412.739 175.977 413.045 176.625 413.261C177.284 413.477 178.057 413.585 178.943 413.585C180.341 413.585 181.494 413.244 182.403 412.562C183.324 411.892 183.784 410.716 183.784 409.034V404.432H183.494C183.165 405.239 182.665 405.96 181.994 406.597C181.324 407.233 180.489 407.733 179.489 408.097C178.5 408.46 177.364 408.642 176.08 408.642C174.17 408.642 172.42 408.199 170.83 407.312C169.25 406.415 167.983 405.028 167.028 403.153C166.085 401.267 165.614 398.841 165.614 395.875C165.614 392.818 166.102 390.301 167.08 388.324C168.057 386.335 169.335 384.864 170.915 383.909C172.506 382.955 174.216 382.477 176.045 382.477C177.42 382.477 178.597 382.716 179.574 383.193C180.563 383.659 181.375 384.261 182.011 385C182.648 385.739 183.131 386.506 183.46 387.301H183.699V382.818H192V409.102C192 411.318 191.443 413.188 190.33 414.71C189.216 416.233 187.659 417.386 185.659 418.17C183.659 418.966 181.347 419.364 178.722 419.364ZM178.977 402.574C179.989 402.574 180.852 402.307 181.568 401.773C182.284 401.239 182.835 400.472 183.222 399.472C183.608 398.472 183.801 397.273 183.801 395.875C183.801 394.455 183.608 393.233 183.222 392.21C182.847 391.176 182.295 390.381 181.568 389.824C180.852 389.267 179.989 388.989 178.977 388.989C177.943 388.989 177.068 389.273 176.352 389.841C175.636 390.409 175.091 391.21 174.716 392.244C174.352 393.267 174.17 394.477 174.17 395.875C174.17 397.273 174.358 398.472 174.733 399.472C175.108 400.472 175.648 401.239 176.352 401.773C177.068 402.307 177.943 402.574 178.977 402.574ZM239.314 386.739H230.791C230.678 385.864 230.445 385.074 230.092 384.369C229.74 383.665 229.274 383.062 228.695 382.562C228.115 382.062 227.428 381.682 226.632 381.42C225.848 381.148 224.979 381.011 224.024 381.011C222.331 381.011 220.871 381.426 219.643 382.256C218.428 383.085 217.49 384.284 216.831 385.852C216.183 387.42 215.859 389.318 215.859 391.545C215.859 393.864 216.189 395.807 216.848 397.375C217.518 398.932 218.456 400.108 219.661 400.903C220.876 401.687 222.314 402.08 223.973 402.08C224.905 402.08 225.751 401.96 226.513 401.722C227.286 401.483 227.962 401.136 228.541 400.682C229.132 400.216 229.615 399.653 229.99 398.994C230.376 398.324 230.643 397.568 230.791 396.727L239.314 396.778C239.166 398.324 238.717 399.847 237.967 401.347C237.229 402.847 236.212 404.216 234.916 405.455C233.621 406.682 232.041 407.659 230.178 408.386C228.325 409.114 226.2 409.477 223.803 409.477C220.643 409.477 217.814 408.784 215.314 407.398C212.825 406 210.859 403.966 209.416 401.295C207.973 398.625 207.251 395.375 207.251 391.545C207.251 387.705 207.984 384.449 209.45 381.778C210.916 379.108 212.899 377.08 215.399 375.693C217.899 374.307 220.7 373.614 223.803 373.614C225.916 373.614 227.871 373.909 229.666 374.5C231.462 375.08 233.041 375.932 234.405 377.057C235.768 378.17 236.876 379.54 237.729 381.165C238.581 382.79 239.109 384.648 239.314 386.739ZM256.364 409.494C253.614 409.494 251.25 408.932 249.273 407.807C247.307 406.67 245.79 405.091 244.722 403.068C243.665 401.034 243.136 398.676 243.136 395.994C243.136 393.301 243.665 390.943 244.722 388.92C245.79 386.886 247.307 385.307 249.273 384.182C251.25 383.045 253.614 382.477 256.364 382.477C259.114 382.477 261.472 383.045 263.438 384.182C265.415 385.307 266.932 386.886 267.989 388.92C269.057 390.943 269.591 393.301 269.591 395.994C269.591 398.676 269.057 401.034 267.989 403.068C266.932 405.091 265.415 406.67 263.438 407.807C261.472 408.932 259.114 409.494 256.364 409.494ZM256.415 403.205C257.415 403.205 258.261 402.898 258.955 402.284C259.648 401.67 260.176 400.818 260.54 399.727C260.915 398.636 261.102 397.375 261.102 395.943C261.102 394.489 260.915 393.216 260.54 392.125C260.176 391.034 259.648 390.182 258.955 389.568C258.261 388.955 257.415 388.648 256.415 388.648C255.381 388.648 254.506 388.955 253.79 389.568C253.085 390.182 252.545 391.034 252.17 392.125C251.807 393.216 251.625 394.489 251.625 395.943C251.625 397.375 251.807 398.636 252.17 399.727C252.545 400.818 253.085 401.67 253.79 402.284C254.506 402.898 255.381 403.205 256.415 403.205ZM282.196 394.068V409H273.861V382.818H281.787V387.625H282.077C282.656 386.023 283.645 384.767 285.043 383.858C286.44 382.938 288.105 382.477 290.037 382.477C291.878 382.477 293.474 382.892 294.827 383.722C296.19 384.54 297.247 385.687 297.997 387.165C298.759 388.631 299.134 390.347 299.122 392.312V409H290.787V393.949C290.798 392.494 290.429 391.358 289.679 390.54C288.94 389.722 287.912 389.312 286.594 389.312C285.719 389.312 284.946 389.506 284.276 389.892C283.616 390.267 283.105 390.807 282.741 391.511C282.389 392.216 282.207 393.068 282.196 394.068ZM319.163 382.818V388.955H302.322V382.818H319.163ZM305.834 409V381.489C305.834 379.466 306.214 377.79 306.976 376.46C307.737 375.119 308.794 374.119 310.146 373.46C311.499 372.79 313.061 372.455 314.834 372.455C315.993 372.455 317.084 372.545 318.107 372.727C319.141 372.898 319.908 373.051 320.408 373.188L319.078 379.29C318.771 379.187 318.396 379.102 317.953 379.034C317.521 378.966 317.112 378.932 316.726 378.932C315.749 378.932 315.078 379.148 314.714 379.58C314.351 380.011 314.169 380.602 314.169 381.352V409H305.834ZM323.173 409V382.818H331.509V409H323.173ZM327.349 379.767C326.179 379.767 325.173 379.381 324.332 378.608C323.491 377.824 323.071 376.881 323.071 375.778C323.071 374.687 323.491 373.756 324.332 372.983C325.173 372.199 326.179 371.807 327.349 371.807C328.531 371.807 329.537 372.199 330.366 372.983C331.207 373.756 331.628 374.687 331.628 375.778C331.628 376.881 331.207 377.824 330.366 378.608C329.537 379.381 328.531 379.767 327.349 379.767ZM336.814 409V382.818H344.911V387.591H345.183C345.661 385.864 346.439 384.58 347.518 383.739C348.598 382.886 349.854 382.46 351.286 382.46C351.672 382.46 352.07 382.489 352.479 382.545C352.888 382.591 353.268 382.665 353.621 382.767V390.011C353.223 389.875 352.7 389.767 352.053 389.688C351.416 389.608 350.848 389.568 350.348 389.568C349.359 389.568 348.467 389.79 347.672 390.233C346.888 390.665 346.268 391.273 345.814 392.057C345.371 392.83 345.149 393.739 345.149 394.784V409H336.814ZM357.017 409V382.818H364.943V387.625H365.233C365.778 386.034 366.699 384.778 367.994 383.858C369.29 382.938 370.835 382.477 372.631 382.477C374.449 382.477 376.006 382.943 377.301 383.875C378.597 384.807 379.42 386.057 379.773 387.625H380.045C380.534 386.068 381.489 384.824 382.909 383.892C384.33 382.949 386.006 382.477 387.938 382.477C390.415 382.477 392.426 383.273 393.972 384.864C395.517 386.443 396.29 388.614 396.29 391.375V409H387.955V393.284C387.955 391.977 387.619 390.983 386.949 390.301C386.278 389.608 385.409 389.261 384.341 389.261C383.193 389.261 382.29 389.636 381.631 390.386C380.983 391.125 380.659 392.119 380.659 393.369V409H372.648V393.199C372.648 391.983 372.318 391.023 371.659 390.318C371 389.614 370.131 389.261 369.051 389.261C368.324 389.261 367.682 389.437 367.125 389.79C366.568 390.131 366.131 390.619 365.812 391.256C365.506 391.892 365.352 392.642 365.352 393.506V409H357.017ZM413.693 409.494C410.955 409.494 408.591 408.955 406.602 407.875C404.625 406.784 403.102 405.233 402.034 403.222C400.977 401.199 400.449 398.795 400.449 396.011C400.449 393.307 400.983 390.943 402.051 388.92C403.119 386.886 404.625 385.307 406.568 384.182C408.511 383.045 410.801 382.477 413.438 382.477C415.301 382.477 417.006 382.767 418.551 383.347C420.097 383.926 421.432 384.784 422.557 385.92C423.682 387.057 424.557 388.46 425.182 390.131C425.807 391.79 426.119 393.693 426.119 395.841V397.92H403.364V393.08H418.364C418.352 392.193 418.142 391.403 417.733 390.71C417.324 390.017 416.761 389.477 416.045 389.091C415.341 388.693 414.528 388.494 413.608 388.494C412.676 388.494 411.841 388.705 411.102 389.125C410.364 389.534 409.778 390.097 409.347 390.812C408.915 391.517 408.688 392.318 408.665 393.216V398.142C408.665 399.21 408.875 400.148 409.295 400.955C409.716 401.75 410.312 402.369 411.085 402.812C411.858 403.256 412.778 403.477 413.847 403.477C414.585 403.477 415.256 403.375 415.858 403.17C416.46 402.966 416.977 402.665 417.409 402.267C417.841 401.869 418.165 401.381 418.381 400.801L426.034 401.023C425.716 402.739 425.017 404.233 423.938 405.506C422.869 406.767 421.466 407.75 419.727 408.455C417.989 409.148 415.977 409.494 413.693 409.494ZM439.939 409.375C438.007 409.375 436.251 408.875 434.672 407.875C433.092 406.875 431.831 405.375 430.888 403.375C429.945 401.375 429.473 398.892 429.473 395.926C429.473 392.847 429.962 390.312 430.939 388.324C431.916 386.335 433.195 384.864 434.774 383.909C436.365 382.955 438.075 382.477 439.905 382.477C441.28 382.477 442.456 382.716 443.433 383.193C444.411 383.659 445.217 384.261 445.854 385C446.49 385.739 446.973 386.506 447.303 387.301H447.473V374.091H455.808V409H447.558V404.756H447.303C446.95 405.562 446.45 406.318 445.803 407.023C445.155 407.727 444.342 408.295 443.365 408.727C442.399 409.159 441.257 409.375 439.939 409.375ZM442.837 402.881C443.848 402.881 444.712 402.597 445.428 402.028C446.143 401.449 446.695 400.636 447.081 399.591C447.467 398.545 447.661 397.318 447.661 395.909C447.661 394.477 447.467 393.244 447.081 392.21C446.706 391.176 446.155 390.381 445.428 389.824C444.712 389.267 443.848 388.989 442.837 388.989C441.803 388.989 440.928 389.273 440.212 389.841C439.496 390.409 438.95 391.21 438.575 392.244C438.212 393.278 438.03 394.5 438.03 395.909C438.03 397.318 438.217 398.545 438.592 399.591C438.967 400.636 439.507 401.449 440.212 402.028C440.928 402.597 441.803 402.881 442.837 402.881ZM470.881 374.091L470.097 398.312H463.091L462.307 374.091H470.881ZM466.585 409.494C465.369 409.494 464.324 409.062 463.449 408.199C462.585 407.335 462.153 406.29 462.153 405.062C462.153 403.858 462.585 402.83 463.449 401.977C464.324 401.114 465.369 400.682 466.585 400.682C467.756 400.682 468.784 401.114 469.67 401.977C470.568 402.83 471.017 403.858 471.017 405.062C471.017 405.881 470.807 406.625 470.386 407.295C469.977 407.966 469.438 408.5 468.767 408.898C468.108 409.295 467.381 409.494 466.585 409.494Z" fill="#F8C4C4"/>
<path d="M146 297H158C159.591 297 161.117 296.352 162.243 295.199C163.368 294.046 164 292.482 164 290.852V220.148C164 218.518 163.368 216.954 162.243 215.801C161.117 214.648 159.591 214 158 214H146V297Z" fill="white" stroke="#020064" stroke-linecap="round" stroke-linejoin="round"/>
<path d="M235.676 204.25C237.998 180.959 241.085 131 221.656 131C217.939 131 214.374 132.478 211.745 135.107C209.117 137.737 207.64 141.304 207.64 145.024V149.701C207.64 183.987 192.784 219.843 164 219.843V291.532H167.677C185.644 291.532 194.139 304 226.331 304H280.848C284.153 304 287.323 302.686 289.659 300.348C291.996 298.01 293.309 294.839 293.309 291.532C293.309 288.226 291.996 285.055 289.659 282.716C287.323 280.378 284.153 279.065 280.848 279.065H287.079C290.384 279.065 293.553 277.751 295.89 275.413C298.227 273.075 299.539 269.904 299.539 266.597C299.539 263.29 298.227 260.119 295.89 257.781C293.553 255.443 290.384 254.129 287.079 254.129H293.309C296.614 254.129 299.783 252.816 302.12 250.478C304.457 248.14 305.77 244.968 305.77 241.662C305.77 238.355 304.457 235.184 302.12 232.846C299.783 230.508 296.614 229.194 293.309 229.194H299.539C302.844 229.194 306.014 227.881 308.35 225.543C310.687 223.204 312 220.033 312 216.727C312 213.42 310.687 210.249 308.35 207.911C306.014 205.572 302.844 204.259 299.539 204.259L235.676 204.25Z" fill="white"/>
<path d="M222 205H235" stroke="#020064" stroke-linecap="round" stroke-linejoin="round"/>
<path d="M280 279H274" stroke="#020064" stroke-linecap="round" stroke-linejoin="round"/>
<path d="M287 254H280" stroke="#020064" stroke-linecap="round" stroke-linejoin="round"/>
<path d="M294 230H287" stroke="#020064" stroke-linecap="round" stroke-linejoin="round"/>
<path d="M235.676 204.25C237.998 180.959 241.085 131 221.656 131C217.939 131 214.374 132.478 211.745 135.107C209.117 137.737 207.64 141.304 207.64 145.024V149.701C207.64 183.987 192.784 219.843 164 219.843V291.532H167.677C185.644 291.532 194.139 304 226.331 304H280.848C284.153 304 287.323 302.686 289.659 300.348C291.996 298.01 293.309 294.839 293.309 291.532C293.309 288.226 291.996 285.055 289.659 282.716C287.323 280.378 284.153 279.065 280.848 279.065H287.079C290.384 279.065 293.553 277.751 295.89 275.413C298.227 273.075 299.539 269.904 299.539 266.597C299.539 263.29 298.227 260.119 295.89 257.781C293.553 255.443 290.384 254.129 287.079 254.129H293.309C296.614 254.129 299.783 252.816 302.12 250.478C304.457 248.14 305.77 244.968 305.77 241.662C305.77 238.355 304.457 235.184 302.12 232.846C299.783 230.508 296.614 229.194 293.309 229.194H299.539C302.844 229.194 306.014 227.881 308.35 225.543C310.687 223.204 312 220.033 312 216.727C312 213.42 310.687 210.249 308.35 207.911C306.014 205.572 302.844 204.259 299.539 204.259L235.676 204.25Z" stroke="#020064" stroke-linecap="round" stroke-linejoin="round"/>
<path d="M101 207H146V304H101V207Z" fill="#F8C4C4"/>
<path d="M101 207H146V304H101V207Z" stroke="#020064" stroke-linecap="round" stroke-linejoin="round"/>
<path d="M223.157 3.96221L232.572 23.431C232.944 24.2051 233.495 24.8747 234.178 25.3812C234.861 25.8877 235.656 26.2157 236.492 26.3366L257.545 29.4621C258.506 29.6046 259.409 30.0186 260.151 30.6573C260.893 31.296 261.445 32.134 261.745 33.0765C262.045 34.0189 262.081 35.0282 261.848 35.9903C261.616 36.9523 261.124 37.8287 260.429 38.5204L245.192 53.6799C244.593 54.2798 244.144 55.0183 243.884 55.8327C243.624 56.6472 243.56 57.5137 243.698 58.3588L247.291 79.7693C247.461 80.7477 247.358 81.7551 246.994 82.6768C246.631 83.5985 246.021 84.3974 245.234 84.9825C244.447 85.5676 243.515 85.9155 242.544 85.9865C241.573 86.0574 240.602 85.8487 239.742 85.3839L220.911 75.2682C220.164 74.867 219.333 74.6574 218.489 74.6574C217.644 74.6574 216.813 74.867 216.066 75.2682L197.235 85.3746C196.375 85.8393 195.404 86.0481 194.433 85.9771C193.462 85.9061 192.53 85.5583 191.743 84.9731C190.957 84.388 190.347 83.5891 189.983 82.6674C189.619 81.7458 189.516 80.7384 189.686 79.7599L193.28 58.3494C193.418 57.5043 193.355 56.6375 193.095 55.8228C192.835 55.0081 192.385 54.2697 191.785 53.6706L176.571 38.5016C175.876 37.81 175.384 36.9336 175.152 35.9715C174.919 35.0095 174.955 34.0002 175.255 33.0577C175.555 32.1153 176.107 31.2773 176.849 30.6386C177.591 29.9999 178.494 29.5858 179.455 29.4433L200.508 26.3179C201.344 26.197 202.139 25.869 202.822 25.3625C203.505 24.856 204.056 24.1864 204.428 23.4123L213.824 3.96221C214.254 3.07311 214.919 2.32445 215.743 1.80095C216.568 1.27745 217.52 1 218.491 1C219.462 1 220.414 1.27745 221.238 1.80095C222.063 2.32445 222.728 3.07311 223.157 3.96221Z" fill="#F8C4C4"/>
<path d="M223.157 3.96221L232.572 23.431C232.944 24.2051 233.495 24.8747 234.178 25.3812C234.861 25.8877 235.656 26.2157 236.492 26.3366L257.545 29.4621C258.506 29.6046 259.409 30.0186 260.151 30.6573C260.893 31.296 261.445 32.134 261.745 33.0765C262.045 34.0189 262.081 35.0282 261.848 35.9903C261.616 36.9523 261.124 37.8287 260.429 38.5204L245.192 53.6799C244.593 54.2798 244.144 55.0183 243.884 55.8327C243.624 56.6472 243.56 57.5137 243.698 58.3588L247.291 79.7693C247.461 80.7477 247.358 81.7551 246.994 82.6768C246.631 83.5985 246.021 84.3974 245.234 84.9825C244.447 85.5676 243.515 85.9155 242.544 85.9864C241.573 86.0574 240.602 85.8487 239.742 85.384L220.911 75.2682C220.164 74.867 219.333 74.6574 218.489 74.6574C217.644 74.6574 216.813 74.867 216.066 75.2682L197.235 85.3746C196.375 85.8393 195.404 86.0481 194.433 85.9771C193.462 85.9061 192.53 85.5582 191.743 84.9731C190.957 84.388 190.347 83.5891 189.983 82.6674C189.619 81.7458 189.516 80.7384 189.686 79.7599L193.28 58.3494C193.418 57.5043 193.355 56.6375 193.095 55.8228C192.835 55.0081 192.385 54.2697 191.785 53.6706L176.571 38.5016C175.876 37.81 175.384 36.9336 175.152 35.9715C174.919 35.0095 174.955 34.0002 175.255 33.0577C175.555 32.1153 176.107 31.2773 176.849 30.6386C177.591 29.9999 178.494 29.5858 179.455 29.4433L200.508 26.3179C201.344 26.197 202.139 25.869 202.822 25.3625C203.505 24.856 204.056 24.1864 204.428 23.4123L213.824 3.96221C214.254 3.07311 214.919 2.32445 215.743 1.80095C216.568 1.27745 217.52 1 218.491 1C219.462 1 220.414 1.27745 221.238 1.80095C222.063 2.32445 222.728 3.07311 223.157 3.96221Z" stroke="#020064" stroke-linecap="round" stroke-linejoin="round"/>
<path d="M113.637 45.6756L128.573 55.2905C129.165 55.6732 129.84 55.9023 130.538 55.9581C131.237 56.0138 131.938 55.8944 132.581 55.6102L148.806 48.4872C149.546 48.1614 150.361 48.054 151.158 48.1771C151.956 48.3002 152.703 48.649 153.316 49.1839C153.929 49.7188 154.383 50.4184 154.627 51.2035C154.871 51.9887 154.895 52.8279 154.696 53.6261L150.361 71.1162C150.188 71.8081 150.182 72.5324 150.342 73.2275C150.502 73.9225 150.825 74.5677 151.282 75.1079L162.928 88.6722C163.46 89.2916 163.811 90.0505 163.942 90.8632C164.074 91.6759 163.98 92.51 163.672 93.2711C163.363 94.0322 162.853 94.69 162.198 95.1702C161.543 95.6503 160.769 95.9336 159.965 95.988L142.35 97.1775C141.651 97.2252 140.974 97.4457 140.377 97.82C139.78 98.1943 139.28 98.7111 138.922 99.3262L129.894 114.842C129.482 115.55 128.885 116.126 128.169 116.505C127.453 116.884 126.648 117.051 125.844 116.986C125.041 116.922 124.271 116.629 123.622 116.14C122.973 115.651 122.471 114.986 122.173 114.221L115.615 97.469C115.357 96.8042 114.943 96.2139 114.411 95.7493C113.879 95.2847 113.243 94.96 112.56 94.8032L95.3642 90.8115C94.5785 90.6299 93.8581 90.2273 93.2847 89.6491C92.7112 89.071 92.3076 88.3404 92.1194 87.54C91.9312 86.7397 91.966 85.9014 92.2199 85.1202C92.4738 84.339 92.9365 83.646 93.5558 83.1196L107.121 71.5723C107.66 71.1157 108.082 70.5313 108.35 69.8701C108.618 69.2088 108.724 68.4906 108.658 67.7781L107.043 49.8131C106.969 48.9942 107.121 48.1706 107.482 47.4353C107.842 46.7 108.397 46.0824 109.082 45.652C109.768 45.2217 110.558 44.9959 111.363 45.0001C112.168 45.0042 112.955 45.2382 113.637 45.6756Z" fill="#F8C4C4"/>
<path d="M113.637 45.6756L128.573 55.2905C129.165 55.6732 129.84 55.9023 130.538 55.9581C131.237 56.0138 131.938 55.8944 132.581 55.6102L148.806 48.4872C149.546 48.1614 150.361 48.054 151.158 48.1771C151.956 48.3002 152.703 48.649 153.316 49.1839C153.929 49.7188 154.383 50.4184 154.627 51.2035C154.871 51.9887 154.895 52.8279 154.696 53.6261L150.361 71.1162C150.188 71.8081 150.182 72.5324 150.342 73.2275C150.502 73.9225 150.825 74.5677 151.282 75.1079L162.928 88.6722C163.46 89.2916 163.811 90.0505 163.942 90.8632C164.074 91.6759 163.98 92.51 163.672 93.2711C163.363 94.0322 162.853 94.69 162.198 95.1702C161.543 95.6503 160.769 95.9336 159.965 95.988L142.35 97.1775C141.651 97.2252 140.974 97.4457 140.377 97.82C139.78 98.1943 139.28 98.7111 138.922 99.3262L129.894 114.842C129.482 115.55 128.885 116.126 128.169 116.505C127.453 116.884 126.648 117.051 125.844 116.986C125.041 116.922 124.271 116.629 123.622 116.14C122.973 115.651 122.471 114.986 122.173 114.221L115.615 97.469C115.357 96.8042 114.943 96.2139 114.411 95.7493C113.879 95.2847 113.243 94.96 112.56 94.8032L95.3642 90.8115C94.5785 90.6299 93.8581 90.2273 93.2847 89.6491C92.7112 89.071 92.3076 88.3404 92.1194 87.54C91.9312 86.7396 91.966 85.9014 92.2199 85.1202C92.4738 84.339 92.9365 83.646 93.5558 83.1196L107.121 71.5723C107.66 71.1157 108.082 70.5313 108.35 69.8701C108.618 69.2088 108.724 68.4906 108.658 67.7781L107.043 49.8131C106.969 48.9942 107.121 48.1706 107.482 47.4353C107.842 46.7 108.397 46.0824 109.082 45.652C109.768 45.2217 110.558 44.9959 111.363 45.0001C112.168 45.0042 112.955 45.2382 113.637 45.6756Z" stroke="#020064" stroke-linecap="round" stroke-linejoin="round"/>
<path d="M54.4381 132.875L67.8508 133.576C68.3829 133.604 68.9135 133.498 69.3968 133.268C69.8801 133.039 70.3015 132.691 70.6246 132.257L78.7909 121.321C79.1637 120.821 79.6653 120.439 80.2391 120.217C80.8128 119.995 81.4356 119.942 82.0371 120.064C82.6386 120.186 83.1948 120.479 83.6426 120.909C84.0904 121.338 84.4121 121.888 84.5711 122.495L88.0658 135.799C88.2052 136.326 88.4669 136.81 88.8283 137.21C89.1898 137.61 89.6404 137.914 90.1415 138.097L102.811 142.688C103.388 142.897 103.897 143.268 104.28 143.759C104.663 144.25 104.904 144.841 104.977 145.465C105.049 146.089 104.95 146.721 104.691 147.291C104.432 147.86 104.022 148.344 103.509 148.687L92.2538 156.207C91.8082 156.506 91.4398 156.911 91.18 157.388C90.9202 157.864 90.7768 158.398 90.762 158.944L90.4244 172.716C90.4088 173.345 90.2222 173.956 89.8856 174.481C89.5489 175.007 89.0757 175.425 88.5194 175.689C87.9632 175.953 87.346 176.052 86.7378 175.975C86.1295 175.897 85.5544 175.647 85.0775 175.252L74.6393 166.6C74.2252 166.255 73.7354 166.019 73.2123 165.912C72.6893 165.806 72.1487 165.831 71.6374 165.987L58.763 169.913C58.1756 170.093 57.5507 170.101 56.9592 169.935C56.3678 169.769 55.8334 169.437 55.4168 168.976C55.0002 168.514 54.7181 167.942 54.6023 167.325C54.4866 166.707 54.5419 166.069 54.762 165.482L59.5523 152.613C59.7448 152.103 59.8126 151.552 59.7498 151.009C59.687 150.465 59.4954 149.946 59.1919 149.496L51.5776 138.148C51.2313 137.631 51.0325 137.026 51.0037 136.399C50.9748 135.773 51.117 135.15 51.4143 134.602C51.7116 134.054 52.1522 133.602 52.6864 133.297C53.2206 132.991 53.8273 132.845 54.4381 132.875Z" fill="#B0D9FF"/>
<path d="M54.4381 132.875L67.8508 133.576C68.3829 133.604 68.9135 133.498 69.3968 133.268C69.8801 133.039 70.3015 132.691 70.6246 132.257L78.7909 121.321C79.1637 120.821 79.6653 120.439 80.2391 120.217C80.8128 119.995 81.4356 119.942 82.0371 120.064C82.6386 120.186 83.1948 120.479 83.6426 120.909C84.0904 121.338 84.4121 121.888 84.5711 122.495L88.0658 135.799C88.2052 136.326 88.4669 136.81 88.8283 137.21C89.1898 137.61 89.6404 137.914 90.1415 138.097L102.811 142.688C103.388 142.897 103.897 143.268 104.28 143.759C104.663 144.25 104.904 144.841 104.977 145.465C105.049 146.089 104.95 146.721 104.691 147.291C104.432 147.86 104.022 148.344 103.509 148.687L92.2538 156.207C91.8082 156.506 91.4398 156.911 91.18 157.388C90.9202 157.864 90.7768 158.398 90.762 158.944L90.4244 172.716C90.4088 173.345 90.2222 173.956 89.8856 174.481C89.5489 175.007 89.0757 175.425 88.5194 175.689C87.9632 175.953 87.346 176.052 86.7378 175.975C86.1295 175.897 85.5544 175.647 85.0775 175.252L74.6393 166.6C74.2252 166.255 73.7354 166.019 73.2123 165.912C72.6893 165.806 72.1487 165.831 71.6374 165.987L58.763 169.913C58.1756 170.093 57.5507 170.101 56.9592 169.935C56.3678 169.769 55.8334 169.437 55.4168 168.976C55.0002 168.514 54.7181 167.942 54.6023 167.325C54.4866 166.707 54.5419 166.069 54.762 165.482L59.5523 152.613C59.7448 152.103 59.8126 151.552 59.7498 151.009C59.687 150.465 59.4954 149.946 59.1919 149.496L51.5776 138.148C51.2313 137.631 51.0325 137.026 51.0037 136.399C50.9748 135.773 51.117 135.15 51.4143 134.602C51.7116 134.054 52.1522 133.602 52.6864 133.297C53.2206 132.991 53.8273 132.845 54.4381 132.875Z" fill="#F8C4C4" stroke="#020064" stroke-linecap="round" stroke-linejoin="round"/>
<path d="M332.941 49.8189C333.016 48.9987 332.864 48.1734 332.503 47.4367C332.143 46.7 331.587 46.0812 330.9 45.6506C330.213 45.2199 329.422 44.9946 328.616 45.0001C327.81 45.0056 327.021 45.2418 326.34 45.6818L311.409 55.2959C310.817 55.6785 310.143 55.9077 309.445 55.9634C308.747 56.0191 308.046 55.8997 307.403 55.6156L291.184 48.4932C290.444 48.1693 289.63 48.0634 288.834 48.1873C288.038 48.3111 287.292 48.66 286.679 49.1943C286.067 49.7287 285.613 50.4273 285.369 51.2114C285.124 51.9955 285.099 52.8338 285.296 53.6316L289.629 71.1203C289.803 71.812 289.81 72.5365 289.65 73.2317C289.49 73.9269 289.167 74.572 288.709 75.1116L277.072 88.6747C276.541 89.2937 276.19 90.0522 276.058 90.8644C275.926 91.6767 276.02 92.5103 276.327 93.2713C276.635 94.0322 277.145 94.69 277.799 95.1704C278.453 95.6508 279.226 95.9346 280.029 95.9898L297.642 97.1792C298.34 97.2269 299.016 97.4474 299.613 97.8217C300.209 98.196 300.707 98.7128 301.064 99.3277L310.089 114.842C310.501 115.55 311.098 116.126 311.813 116.505C312.529 116.884 313.334 117.051 314.137 116.986C314.941 116.922 315.71 116.629 316.359 116.14C317.008 115.651 317.509 114.986 317.807 114.221L324.362 97.4707C324.621 96.8062 325.034 96.2161 325.567 95.7516C326.099 95.2871 326.734 94.9623 327.416 94.8051L344.633 90.8232C345.419 90.6423 346.14 90.2401 346.714 89.6623C347.287 89.0845 347.691 88.354 347.88 87.5536C348.069 86.7532 348.034 85.9149 347.781 85.1334C347.527 84.352 347.065 83.6586 346.446 83.1319L332.881 71.5857C332.342 71.1286 331.921 70.5442 331.653 69.8831C331.386 69.222 331.28 68.5042 331.345 67.7918L332.941 49.8189Z" fill="#B0D9FF"/>
<path d="M332.941 49.8189C333.016 48.9987 332.864 48.1734 332.503 47.4367C332.143 46.7 331.587 46.0812 330.9 45.6506C330.213 45.2199 329.422 44.9946 328.616 45.0001C327.81 45.0056 327.021 45.2418 326.34 45.6818L311.409 55.2959C310.817 55.6785 310.143 55.9077 309.445 55.9634C308.747 56.0191 308.046 55.8997 307.403 55.6156L291.184 48.4932C290.444 48.1679 289.63 48.0607 288.834 48.1837C288.038 48.3066 287.291 48.6549 286.678 49.1891C286.066 49.7233 285.612 50.422 285.367 51.2063C285.123 51.9906 285.098 52.8291 285.296 53.6269L289.629 71.1203C289.803 71.812 289.81 72.5365 289.65 73.2317C289.49 73.9269 289.167 74.572 288.709 75.1116L277.072 88.6747C276.541 89.2937 276.19 90.0522 276.058 90.8644C275.926 91.6767 276.02 92.5103 276.327 93.2713C276.635 94.0322 277.145 94.69 277.799 95.1704C278.453 95.6508 279.226 95.9346 280.029 95.9898L297.642 97.1792C298.34 97.2269 299.016 97.4474 299.613 97.8217C300.209 98.196 300.707 98.7128 301.064 99.3277L310.089 114.842C310.501 115.55 311.098 116.126 311.813 116.505C312.529 116.884 313.334 117.051 314.137 116.986C314.941 116.922 315.71 116.629 316.359 116.14C317.008 115.651 317.509 114.986 317.807 114.221L324.362 97.4707C324.621 96.8062 325.034 96.2161 325.567 95.7516C326.099 95.2871 326.734 94.9623 327.416 94.8051L344.633 90.8232C345.419 90.6423 346.14 90.2401 346.714 89.6623C347.287 89.0845 347.691 88.354 347.88 87.5536C348.069 86.7532 348.034 85.9149 347.781 85.1334C347.527 84.352 347.065 83.6586 346.446 83.1319L332.881 71.5857C332.342 71.1286 331.921 70.5442 331.653 69.8831C331.386 69.222 331.28 68.5042 331.345 67.7918L332.941 49.8189Z" fill="#F8C4C4" stroke="#020064" stroke-linecap="round" stroke-linejoin="round"/>
<path d="M387.418 138.148C387.766 137.631 387.967 137.024 387.996 136.396C388.026 135.768 387.883 135.144 387.584 134.595C387.286 134.046 386.843 133.593 386.306 133.289C385.77 132.985 385.161 132.842 384.549 132.875L371.14 133.576C370.608 133.605 370.077 133.5 369.594 133.27C369.11 133.04 368.689 132.692 368.367 132.257L360.198 121.321C359.826 120.821 359.324 120.439 358.751 120.217C358.177 119.995 357.554 119.942 356.953 120.064C356.352 120.186 355.796 120.479 355.348 120.909C354.9 121.338 354.579 121.888 354.42 122.495L350.931 135.799C350.791 136.326 350.53 136.81 350.168 137.21C349.807 137.61 349.356 137.914 348.855 138.097L336.194 142.688C335.616 142.896 335.105 143.266 334.722 143.757C334.338 144.248 334.096 144.839 334.023 145.464C333.95 146.089 334.05 146.722 334.31 147.292C334.571 147.861 334.982 148.345 335.497 148.687L346.744 156.207C347.191 156.504 347.56 156.909 347.82 157.386C348.08 157.863 348.222 158.398 348.235 158.944L348.577 172.716C348.593 173.345 348.779 173.956 349.116 174.481C349.452 175.007 349.926 175.425 350.482 175.689C351.038 175.953 351.655 176.052 352.263 175.975C352.871 175.897 353.446 175.647 353.923 175.252L364.372 166.6C364.785 166.256 365.274 166.02 365.796 165.913C366.318 165.806 366.858 165.832 367.368 165.987L380.239 169.913C380.826 170.092 381.451 170.1 382.042 169.934C382.633 169.768 383.167 169.436 383.584 168.975C384 168.514 384.283 167.942 384.4 167.325C384.516 166.707 384.462 166.069 384.243 165.482L379.45 152.613C379.259 152.102 379.193 151.552 379.255 151.009C379.318 150.466 379.509 149.947 379.81 149.496L387.418 138.148Z" fill="#F8C4C4"/>
<path d="M387.418 138.145C387.766 137.628 387.967 137.021 387.996 136.393C388.026 135.765 387.883 135.141 387.584 134.591C387.286 134.042 386.843 133.59 386.306 133.286C385.77 132.982 385.161 132.838 384.549 132.871L371.14 133.573C370.608 133.602 370.077 133.497 369.594 133.267C369.11 133.037 368.689 132.689 368.367 132.253L360.198 121.316C359.825 120.818 359.324 120.437 358.751 120.216C358.178 119.995 357.556 119.942 356.956 120.064C356.355 120.186 355.8 120.478 355.353 120.907C354.906 121.336 354.584 121.885 354.424 122.491L350.931 135.796C350.791 136.322 350.53 136.806 350.168 137.207C349.807 137.607 349.356 137.911 348.855 138.094L336.194 142.685C335.616 142.893 335.105 143.264 334.722 143.754C334.338 144.245 334.096 144.837 334.023 145.462C333.95 146.086 334.05 146.72 334.31 147.289C334.571 147.859 334.982 148.342 335.497 148.685L346.744 156.205C347.191 156.503 347.56 156.907 347.82 157.385C348.08 157.862 348.222 158.397 348.235 158.943L348.577 172.716C348.593 173.344 348.779 173.956 349.116 174.481C349.452 175.007 349.926 175.425 350.482 175.689C351.038 175.953 351.655 176.052 352.263 175.975C352.871 175.897 353.446 175.647 353.923 175.252L364.372 166.599C364.785 166.255 365.274 166.019 365.796 165.912C366.318 165.805 366.858 165.831 367.368 165.986L380.244 169.913C380.831 170.091 381.455 170.097 382.045 169.931C382.635 169.764 383.169 169.432 383.585 168.971C384.001 168.51 384.283 167.939 384.399 167.322C384.516 166.706 384.462 166.068 384.243 165.481L379.45 152.611C379.259 152.1 379.193 151.55 379.255 151.007C379.318 150.464 379.509 149.945 379.81 149.494L387.418 138.145Z" stroke="#020064" stroke-linecap="round" stroke-linejoin="round"/>
</svg>
