<svg width="51" height="51" viewBox="0 0 51 51" fill="none" xmlns="http://www.w3.org/2000/svg">
<path d="M25.5 0C11.4168 0 0 11.417 0 25.5C0 39.584 11.417 51 25.5 51C39.5842 51 51 39.584 51 25.5C51 11.418 39.5842 0.00139453 25.4996 0.00139453L25.5 0ZM37.1939 36.7786C36.7371 37.5276 35.7566 37.7651 35.0075 37.3053C29.0204 33.6482 21.4836 32.8199 12.6074 34.8479C12.1963 34.9415 11.765 34.868 11.4081 34.6436C11.0513 34.4191 10.7982 34.0622 10.7044 33.6512C10.6577 33.4478 10.6516 33.2371 10.6864 33.0313C10.7212 32.8254 10.7963 32.6285 10.9073 32.4517C11.0183 32.2749 11.1631 32.1218 11.3334 32.0011C11.5037 31.8803 11.6962 31.7944 11.8997 31.7481C21.6136 29.5288 29.9456 30.4843 36.6672 34.5921C37.4163 35.0519 37.6537 36.0295 37.1939 36.7786ZM40.3151 29.8352C39.7394 30.7705 38.5154 31.066 37.5806 30.4904C30.7263 26.2774 20.2779 25.0571 12.1707 27.5181C11.1192 27.8356 10.0087 27.2432 9.6896 26.1935C9.37284 25.142 9.96572 24.0336 11.0154 23.714C20.2761 20.9038 31.7889 22.2651 39.6605 27.1021C40.5952 27.6779 40.8906 28.9017 40.3151 29.8352ZM40.583 22.605C32.3645 17.7233 18.8051 17.2743 10.9584 19.6561C9.69837 20.0382 8.36579 19.3268 7.98409 18.0668C7.60219 16.8061 8.3128 15.4745 9.57386 15.0914C18.5811 12.3569 33.5552 12.8855 43.0171 18.5026C44.153 19.1752 44.5244 20.6391 43.8514 21.7708C43.1817 22.9044 41.7138 23.2779 40.5842 22.605H40.583Z" fill="#1ED760"/>
</svg>
