<svg width="55" height="40" viewBox="0 0 55 40" fill="none" xmlns="http://www.w3.org/2000/svg">
<path d="M55 19.8276C55 19.6922 55 19.5383 54.9939 19.3598C54.9877 18.8612 54.9754 18.301 54.9632 17.7039C54.9141 15.9865 54.8281 14.2752 54.6931 12.6624C54.5089 10.4401 54.2388 8.58726 53.8705 7.19606C53.4819 5.74423 52.72 4.42012 51.6611 3.35609C50.6023 2.29206 49.2834 1.52537 47.8365 1.13266C46.0993 0.66482 42.6987 0.3755 37.9107 0.196983C35.6334 0.110803 33.1964 0.0554013 30.7595 0.0246226C29.9062 0.0123111 29.1144 0.00615574 28.4023 0H26.5977C25.8856 0.00615574 25.0938 0.0123111 24.2405 0.0246226C21.8036 0.0554013 19.3666 0.110803 17.0893 0.196983C12.3013 0.381656 8.89453 0.670975 7.1635 1.13266C5.71608 1.5244 4.39674 2.29077 3.33772 3.35495C2.27869 4.41913 1.51717 5.74375 1.12946 7.19606C0.755022 8.58726 0.491071 10.4401 0.30692 12.6624C0.171875 14.2752 0.0859374 15.9865 0.0368303 17.7039C0.0184151 18.301 0.0122767 18.8612 0.0061383 19.3598C0.0061383 19.5383 0 19.6922 0 19.8276V20.1724C0 20.3078 -9.37559e-08 20.4617 0.0061383 20.6402C0.0122767 21.1388 0.0245535 21.699 0.0368303 22.2961C0.0859374 24.0135 0.171875 25.7248 0.30692 27.3376C0.491071 29.5599 0.761161 31.4127 1.12946 32.8039C1.91518 35.7525 4.22321 38.0794 7.1635 38.8673C8.89453 39.3352 12.3013 39.6245 17.0893 39.803C19.3666 39.8892 21.8036 39.9446 24.2405 39.9754C25.0938 39.9877 25.8856 39.9938 26.5977 40H28.4023C29.1144 39.9938 29.9062 39.9877 30.7595 39.9754C33.1964 39.9446 35.6334 39.8892 37.9107 39.803C42.6987 39.6183 46.1055 39.329 47.8365 38.8673C50.7768 38.0794 53.0848 35.7587 53.8705 32.8039C54.245 31.4127 54.5089 29.5599 54.6931 27.3376C54.8281 25.7248 54.9141 24.0135 54.9632 22.2961C54.9816 21.699 54.9877 21.1388 54.9939 20.6402C54.9939 20.4617 55 20.3078 55 20.1724V19.8276ZM50.5804 20.1477C50.5804 20.277 50.5804 20.4186 50.5742 20.5848C50.5681 21.0649 50.5558 21.5943 50.5435 22.1668C50.5006 23.8042 50.4146 25.4417 50.2857 26.9621C50.12 28.9443 49.8867 30.5694 49.5982 31.659C49.2176 33.0809 48.1004 34.2074 46.6886 34.583C45.3996 34.9277 42.1523 35.2047 37.7388 35.3709C35.5045 35.4571 33.0982 35.5125 30.6981 35.5432C29.8571 35.5556 29.0776 35.5617 28.3778 35.5617H26.6222L24.3019 35.5432C21.9018 35.5125 19.5017 35.4571 17.2612 35.3709C12.8477 35.1985 9.59431 34.9277 8.31138 34.583C6.89955 34.2013 5.78237 33.0809 5.40179 31.659C5.11328 30.5694 4.88002 28.9443 4.71429 26.9621C4.58538 25.4417 4.50558 23.8042 4.45647 22.1668C4.43806 21.5943 4.43192 21.0588 4.42578 20.5848C4.42578 20.4186 4.41964 20.2709 4.41964 20.1477V19.8523C4.41964 19.723 4.41964 19.5814 4.42578 19.4152C4.43192 18.9351 4.4442 18.4057 4.45647 17.8332C4.49944 16.1957 4.58538 14.5583 4.71429 13.0379C4.88002 11.0557 5.11328 9.43059 5.40179 8.34103C5.78237 6.91905 6.89955 5.79255 8.31138 5.41705C9.60045 5.07233 12.8477 4.79532 17.2612 4.62912C19.4955 4.54293 21.9018 4.48753 24.3019 4.45676C25.1429 4.44444 25.9224 4.43829 26.6222 4.43829H28.3778L30.6981 4.45676C33.0982 4.48753 35.4983 4.54293 37.7388 4.62912C42.1523 4.80148 45.4057 5.07233 46.6886 5.41705C48.1004 5.79871 49.2176 6.91905 49.5982 8.34103C49.8867 9.43059 50.12 11.0557 50.2857 13.0379C50.4146 14.5583 50.4944 16.1957 50.5435 17.8332C50.5619 18.4057 50.5681 18.9412 50.5742 19.4152C50.5742 19.5814 50.5804 19.7291 50.5804 19.8523V20.1477ZM22.0368 28.2487L36.2779 19.9384L22.0368 11.7513V28.2487Z" fill="#FF0000"/>
</svg>
